<?xml version="1.0" encoding="utf-8"?>
<!-- Generator: Adobe Illustrator 23.1.0, SVG Export Plug-In . SVG Version: 6.00 Build 0)  -->
<svg version="1.1" id="Layer_1" xmlns="http://www.w3.org/2000/svg" xmlns:xlink="http://www.w3.org/1999/xlink" x="0px" y="0px"
	 viewBox="0 0 200 200" style="enable-background:new 0 0 200 200;" xml:space="preserve">
<style type="text/css">
	.st0{fill:#9E74D9;}
	.st1{fill:#FEFDFE;}
	.st2{fill:#33017C;}
	.st3{fill:#4E00C9;}
	.st4{fill:#FDFDFD;}
	.st5{fill:#9767D3;}
	.st6{fill:#39008D;}
	.st7{fill:#3A0096;}
	.st8{fill:#2B0168;}
</style>
<path class="st0" d="M52,135.4c-1-0.5-1.2-1.6-1.9-2.4c-0.5-0.7-1-1.5-1.5-2.3c-0.3-0.6-0.6-0.7-1.3-0.3c-3.9,2.3-7.9,4.6-11.9,6.8
	c-5.1,2.9-10.2,5.8-15.3,8.8c-2.3,1.3-4.7,2.6-6.9,4c-0.1,0-0.2,0-0.3,0c-1-1.7-1.8-3.6-2.2-5.6c-0.1-0.5-0.1-0.9-0.1-1.4
	c0-28.6,0-57.1,0-85.7c0-2.1,0.7-4,1.5-5.8c1.2-2.6,3-4.8,5.2-6.6c0.7-0.5,1.5-0.9,2.3-1.3c2.2-1.4,4.5-2.6,6.7-3.9
	c1.3-0.8,2.6-1.5,4-2.2c0.8-0.4,1.7-1,2.5-1.4c1.9-1.1,3.7-2.4,5.7-3.4c2.1-1,4-2.5,6.1-3.6c1.3-0.7,2.7-1.5,4-2.2
	c1.2-0.7,2.6-1.3,3.8-2.2c1-0.7,2.1-1,3-1.7c1.2-0.9,2.6-1.3,3.8-2.2c0.8-0.7,1.9-1,2.8-1.5c0.6-0.3,1-0.8,1.6-1.1
	c2.1-1.1,4.1-2.4,6.2-3.5c0.8-0.4,1.5-1.2,2.5-1.3c0.6-0.1,1-0.7,1.6-1c2-1.3,4.2-2.4,6.2-3.6c1.3-0.8,2.7-1.4,4-2.2
	C87,4.9,89.6,3.6,92.1,2c1.3-0.9,2.8-1.4,4.4-1.6C97.6,0.3,98.6,0,99.7,0c1.7,0,3.5,0.3,5.2,0.8c1.1,0.3,2.2,0.7,3.2,1.6
	c0.6,0.6,1.6,0.8,2.4,1.3c1.5,0.9,3,1.7,4.4,2.8c0.7,0.5,1.6,0.6,2.3,1.2c1.3,1.2,3.2,1.6,4.5,2.7c0.5,0.4,1.3,0.5,1.8,0.9
	c1.6,1.2,3.5,1.8,5,3c0.5,0.4,1.2,0.5,1.8,0.8c1.4,0.8,2.9,1.6,4.3,2.5c1.6,1,3.3,1.7,4.8,2.8c1.5,1.1,3.4,1.8,5,2.8
	c0.8,0.5,1.6,1,2.4,1.5c0.7,0.5,1.6,0.7,2.3,1.2c1.4,1.1,3.2,1.7,4.6,2.8c0.7,0.5,1.6,0.7,2.3,1.2c1.4,0.9,3.1,1.5,4.4,2.6
	c0.3,0.3,0.8,0.4,1.2,0.6c1.7,0.7,3.2,1.8,4.7,2.7c1.4,0.8,2.9,1.5,4.3,2.5c0.8,0.6,1.7,1.1,2.6,1.5c1.3,0.6,2.6,1.4,3.9,2.2
	c1.4,0.9,2.9,1.7,4.3,2.6c1.8,1.1,3.3,2.6,4.4,4.3c0.2,0.4,0.6,0.6,0.7,1c-6.6,3.8-13.1,7.6-19.7,11.4c-5.2,3-10.3,5.9-15.5,8.9
	c-0.9-1.7-1.9-3.2-3-4.7c-2.5-3.3-5.1-6.4-8.1-9.2c-3.4-3.1-7.1-5.8-11.1-8c-5.2-3-10.8-5.1-16.7-6.3c-3.5-0.8-7.1-1.2-10.7-1.3
	c-4.6,0-9.1,0.1-13.6,1.1c-4,0.8-7.8,2-11.5,3.5c-4.7,2-9.1,4.5-13.1,7.7c-2.1,1.6-4.1,3.3-6,5.2c-2.8,2.9-5.4,6-7.6,9.5
	c-2.1,3.3-4,6.7-5.3,10.3c-1.3,3.5-2.4,7-3.1,10.7c-0.6,3.1-0.9,6.3-1,9.5c-0.1,2.4,0.1,4.8,0.2,7.3c0.1,1.7,0.3,3.5,0.7,5.2
	c0.4,2.4,1,4.7,1.7,7c0.9,2.8,1.9,5.5,3.2,8.1c1.2,2.7,3,5.2,4.7,7.7C51.2,134,51.9,134.5,52,135.4z"/>
<path class="st0" d="M802.9-496.9l-0.9-0.7c0.3-0.1,0.7,0,0.9,0.4C802.9-497.1,802.9-497,802.9-496.9z"/>
<path class="st1" d="M51.5,135.5c-0.1-0.9-0.8-1.4-1.3-2.1c-1.6-2.5-3.4-4.9-4.7-7.7c-1.2-2.6-2.3-5.4-3.2-8.1
	c-0.7-2.3-1.3-4.6-1.7-7c-0.3-1.7-0.6-3.5-0.7-5.2c-0.1-2.4-0.3-4.8-0.2-7.3c0.2-3.2,0.4-6.3,1-9.5c0.7-3.6,1.8-7.2,3.1-10.7
	c1.4-3.6,3.3-7,5.3-10.3c2.2-3.4,4.8-6.5,7.6-9.5c1.8-1.9,3.9-3.6,6-5.2c4-3.1,8.4-5.7,13.1-7.7c3.7-1.5,7.6-2.7,11.5-3.5
	c4.5-0.9,9-1.1,13.6-1.1c3.6,0.1,7.2,0.5,10.7,1.3c5.9,1.2,11.5,3.4,16.7,6.3c4,2.3,7.7,4.9,11.1,8c3.1,2.8,5.7,5.9,8.1,9.2
	c1.2,1.5,2.2,3.1,3,4.7c-0.1,0.1-0.1,0.2-0.2,0.3c-0.5,0.1-1,0.2-1.1,0.8l-0.5,0.2c-0.4-0.1-0.7,0.2-1,0.4c-1.2,0.9-2.6,1.5-3.9,2.3
	c-2,1.3-4.1,2.3-6.1,3.5c-1.9,1.1-3.7,2.2-5.6,3.3c-2.2,1.3-4.3,2.5-6.5,3.7c-0.6,0.3-0.9,0.3-1.3-0.2c-0.9-1.4-1.8-2.7-2.9-3.9
	c-2.2-2.5-4.9-4.7-7.8-6.3c-2.4-1.3-5.1-2.4-7.8-3.1c-3.5-0.9-7-0.9-10.5-0.6c-2.3,0.2-4.6,0.9-6.8,1.7c-2.9,1-5.4,2.6-7.8,4.4
	c-2.4,1.8-4.3,4-6.1,6.5c-1.5,2-2.5,4.2-3.4,6.4c-0.9,2.2-1.4,4.5-1.7,6.9c-0.3,2.5-0.3,5,0.1,7.5c0.4,2.3,0.8,4.5,1.6,6.6
	c0.7,1.9,1.7,3.8,2.8,5.6c0.4,0.7,0.7,1.6,1.6,1.9l0,0c0,0.2,0,0.4,0.3,0.4l0,0c1.2,2,2.8,3.5,4.8,4.8l0.1,0.1
	c0,0.3,0.2,0.4,0.4,0.5c2.5,1.9,5.3,3.4,8.3,4.5c0.6,0.2,1.3,0.8,2.1,0.4l0.3,0c1,1,2.4,0.6,3.6,0.9c0.6,0.2,1.3,0.2,2,0h3.1
	c1.7,0.4,3.4-0.3,5-0.4c0.3,0,0.5-0.2,0.6-0.5l0.3-0.1c0.3,0.1,0.6,0.1,0.9,0c1.4-0.6,2.9-1.1,4.2-1.7c2-0.9,3.8-2.1,5.6-3.4
	c0.6-0.4,1.3-0.7,1.5-1.5l0.1-0.1c1.6-1,2.9-2.5,3.8-4.1l0,0c0.5-0.5,1.2-0.9,1.2-1.8l0-0.1c0.4,0.1,0.4-0.3,0.6-0.5
	c0.3-0.3,0.6-0.5,1-0.3c0.6,0.5,1.3,0.8,1.9,1.2c1,0.6,2,1.3,3.1,1.6c0,0,0.1,0.1,0.1,0.1c0.3,0.7,0.9,0.8,1.6,0.8
	c0,0,0.1,0.1,0.1,0.1c0.3,0.5,0.6,0.8,1.2,0.6l0.3,0.3c0.2,0.5,0.7,0.7,1.1,0.9c0.9,0.4,1.6,0.9,2.4,1.3c2.4,1.3,4.8,2.8,7.2,4.2
	c1.7,1,3.5,2,5.2,3c0.5,0.3,0.5,0.5,0.2,1s-0.8,0.9-0.7,1.5l0,0c-0.2,0-0.3,0.1-0.4,0.2c-0.6,1-1.3,1.9-1.9,2.9
	c-0.5,0.8-1.4,1.2-1.5,2.2l0,0c-0.4,0-0.5,0.3-0.6,0.6l0,0.1c-0.2,0-0.3,0.2-0.3,0.4c0,0,0,0,0,0l0,0c-1.1,0.8-1.9,1.9-2.7,3l0,0
	c-0.5,0.1-0.8,0.5-1,1l0,0c-0.7,0.4-1.2,0.8-1.7,1.4c-0.4,0.5-1.1,0.6-1.3,1.3l0,0c-0.1,0-0.3,0-0.4,0.1c-1,0.8-2,1.6-3,2.4
	c-0.5,0.4-1.3,0.5-1.5,1.3l-0.1,0c-0.4-0.1-0.7,0.3-1,0.4c-0.9,0.5-1.8,1.1-2.6,1.6c-2.6,1.5-5.3,2.9-8.1,3.9
	c-1.8,0.7-3.7,1.4-5.6,1.9c-0.8,0.3-1.8,0.1-2.4,0.9l-0.5,0.1c-1.6,0.2-3.2,0.2-4.7,1h-0.3c-1.3-0.2-2.5,0.3-3.8,0.3
	c-3.8,0-7.6,0.4-11.4-0.3c-0.6-0.1-1.2-0.1-1.8,0l-0.7,0c-1.4-0.8-2.9-0.8-4.5-0.9l-0.5-0.1c-0.3-0.2-0.5-0.5-0.8-0.5
	c-1.2-0.3-2.3-0.6-3.4-1c-1.8-0.6-3.6-1.3-5.3-2c-4-1.7-7.7-3.9-11.3-6.3c-0.5-0.4-0.9-0.9-1.6-0.9l-0.1-0.1
	c0.1-0.4-0.3-0.5-0.5-0.7c-0.9-0.7-1.8-1.4-2.6-2.2c-0.5-0.4-0.8-1-1.5-1.1l0,0c-0.1-0.6-0.4-0.8-0.9-0.9l0,0
	c-0.1-0.6-0.4-0.8-0.9-0.9l0,0c-0.5-1.1-1.3-1.8-2.2-2.5l0,0C53.3,137.5,52.4,136.5,51.5,135.5L51.5,135.5z"/>
<path class="st0" d="M71.4,110.9c-0.9-2.1-1.3-4.4-1.6-6.6c-0.4-2.5-0.4-5-0.1-7.5c0.3-2.4,0.8-4.7,1.7-6.9s2-4.4,3.4-6.4
	c1.8-2.4,3.7-4.7,6.1-6.5c2.4-1.8,5-3.4,7.8-4.4c2.2-0.8,4.5-1.5,6.8-1.7c3.5-0.3,7-0.3,10.5,0.6c2.7,0.7,5.3,1.7,7.7,3.1
	c3,1.6,5.6,3.8,7.8,6.3c1.1,1.2,2.6,3.4,3.4,4.7c0,0-6.3,3.6-9.6,5.4c-3.9,2.2-7.8,4.4-11.7,6.7s-7.7,4.5-11.5,6.8
	c-4.4,2.5-8.8,5-13.2,7.6c-1.6,0.9-3.1,1.9-4.7,2.8C73.9,115.2,72.2,112.8,71.4,110.9z"/>
<g>
	<path class="st2" d="M189.2,57.4c0-1.3-0.5-2.5-0.8-3.8s-1-2.2-1.3-3.4l-0.2-0.2l-0.3-0.1c-6.6,3.8-13.1,7.6-19.7,11.4
		c-5.2,3-10.3,5.9-15.5,8.9l-0.1,0.3c-0.2,0.6-0.6,0.8-1.1,0.8l-0.5,0.2c-0.1,0.3-0.3,0.6-0.7,0.8c-2.3,1.1-4.4,2.4-6.5,3.7
		c-3.7,2.1-7.3,4.2-10.9,6.3c-1.8,1-3.5,2.2-5.4,3c-3.5,1.5-6.6,3.7-9.9,5.5c-3.9,2.2-7.8,4.5-11.7,6.7c-3.8,2.3-7.7,4.5-11.5,6.8
		c-4.4,2.5-8.8,5-13.2,7.6c-1.6,0.9-3.1,1.9-4.7,2.8c-0.6,0.3-0.5,0.6-0.2,1.1c0.5,0.8,1.2,1.5,1.5,2.4l0,0c0,0,0,0,0,0
		c0.2,0,0.3,0.2,0.3,0.4l0,0c0.5,0.3,0.9,0.8,1.3,1.2c0.9,1.1,2,2,3.1,3c0.2,0.2,0.4,0.3,0.4,0.6l0.1,0.1c1,0.3,1.7,1,2.5,1.5
		c2.3,1.5,4.7,2.6,7.3,3.3c0.4,0.1,0.7,0.3,1,0.5l0.3,0c1.3,0.2,2.5,0.3,3.8,0.5c0.6,0.1,1.3-0.1,1.8,0.4h3.1
		c0.6-0.4,1.3-0.3,1.9-0.4c1.2-0.3,2.5-0.3,3.7-0.5l0.3-0.1c0.7-0.7,1.6-0.6,2.5-0.9c3.5-1.3,6.7-3.1,9.5-5.5
		c0.1-0.1,0.2-0.1,0.4-0.1l0.1-0.1c1.3-1.4,2.5-2.8,3.8-4.1l0,0c0.2-0.7,0.7-1.2,1.2-1.8l0-0.1c0-0.1,0.1-0.2,0.1-0.4
		c0.6-1,0.9-1.2,1.8-0.6c1.6,1,3.3,1.7,4.7,2.9c0,0,0.1,0.1,0.1,0.1c0.7,0,1.1,0.5,1.6,0.8c0,0,0.1,0.1,0.1,0.1
		c0.6-0.1,0.8,0.4,1.2,0.6l0.3,0.3c0.9,0.1,1.5,0.6,2.2,1c3.9,2.2,7.8,4.5,11.7,6.7c0.8,0.5,1.5,1,2.4,1.4c0.1,0,0.1,0,0.1,0.1
		c0.3,0.2,0.4,0.6,0.2,0.9c-0.4,0.6-0.5,1.4-1.2,1.8c-1,2-2.3,3.8-3.8,5.3l0,0c-0.1,0.3-0.2,0.6-0.6,0.6l-0.1,0.1c0,0,0,0,0,0
		c0,0.2-0.1,0.3-0.3,0.4c-0.7,1.2-1.6,2.2-2.7,3c-0.1,0.5-0.5,0.8-0.9,0.9c-0.8,1.1-1.8,2-3,2.7l0,0c-1.4,1.5-3.1,2.8-4.9,3.8
		l-0.1,0c-0.9,0.9-2.1,1.5-3.2,2.2c-2.6,1.6-5.4,2.9-8.2,4.1c-2.6,1-5.2,1.9-7.9,2.6c-0.1,0.1-0.3,0-0.4-0.1l-0.5,0.1
		c-0.1,0.2-0.4,0.4-0.6,0.4c-1.1,0.2-2.1,0.3-3.1,0.8c-0.2,0.1-0.7,0.3-1-0.2h-0.3c-1,0.6-2.2,0.4-3.3,0.6c-2.5,0.2-5,0.3-7.4,0.2
		c-1.9-0.1-3.8,0-5.6-0.4c-0.2,0-0.4-0.1-0.6-0.3l-0.7,0c-1.5,0-3.1-0.3-4.5-0.9l-0.5-0.1c-0.9,0.2-1.7-0.3-2.5-0.5
		c-3.6-1.1-7.2-2.4-10.5-4.2c-1.3-0.7-2.7-1.3-3.9-2.1c-1.8-1.3-3.8-2.2-5.4-3.9l-0.1-0.1c-1.7-1.1-3.2-2.4-4.6-4l0,0
		c-0.4-0.1-0.8-0.5-0.9-0.9l0,0c-0.4-0.2-0.8-0.5-0.9-0.9l0,0c-0.9-0.7-1.7-1.5-2.2-2.6c-1.1-0.8-1.9-1.9-2.5-3.1l0,0
		c-1-0.5-1.2-1.6-1.9-2.4c-0.5-0.7-1-1.5-1.5-2.3c-0.3-0.6-0.6-0.7-1.3-0.3c-3.9,2.3-7.9,4.6-11.9,6.8c-5.1,2.9-10.2,5.8-15.3,8.8
		c-2.3,1.3-4.7,2.6-6.9,4c-0.1,0-0.2,0-0.3,0c-0.2,0.1-0.2,0.3,0,0.5c0.6,0.8,1.2,1.6,1.9,2.4c1.6,1.8,3.6,3.1,5.7,4.2
		c2.8,1.5,5.5,3.2,8.2,4.7c2.3,1.3,4.6,2.6,6.8,3.9c3,1.7,5.9,3.5,8.8,5.2c2.1,1.2,4.3,2.4,6.4,3.6c2.4,1.4,4.9,2.8,7.3,4.2
		c0.4,0.2,0.8,0.4,1.3,0.6c0.3,0.1,0.6,0.2,0.6,0.6c0.3,0.1,0.7-0.1,0.8,0.3l0.5,0.3c0.3-0.1,0.4,0.1,0.4,0.3l0.8,0.4
		c1.2,0.3,2.1,1.1,3.1,1.8l0.3,0.2c0.5,0,0.9,0.3,1.1,0.8c0.6,0,0.9,0.5,1.3,0.8c0.3,0.1,0.8,0,0.9,0.5l0.1,0.1
		c1,0.3,1.9,0.7,2.6,1.5c0.3,0,0.5,0.1,0.7,0.4c0.7,0,1.2,0.5,1.8,1l0.4,0.2c0.2,0,0.3,0.1,0.3,0.3l0.5,0.2c0.2-0.1,0.4,0,0.4,0.3
		l0.1,0.1c0.8,0.2,1.5,0.6,2.1,1.2l0.2,0.1c0.2,0,0.3,0.1,0.3,0.3c0.5,0,0.7,0.5,1.1,0.6c0.8,0.3,1.6,0.5,2.1,1.3
		c0.3,0,0.6,0,0.7,0.3l0.4,0.3c1,0.4,2,0.9,2.9,1.6l0.7,0.5c0.1,0,0.2,0.1,0.2,0.2c0.1,0,0.3,0,0.4,0.2l0.4,0.3c0.5,0,1,0.3,1.2,0.8
		c0.4,0,0.6,0.3,0.9,0.4c0.5-0.1,0.7,0.4,1,0.5l0.2,0.1c0.4,0.2,1,0.1,1.1,0.8l0.6,0.1c0.3-0.1,0.4,0,0.4,0.3l0.1,0.1
		c1.1,0.2,2.1,0.5,3.2,0.7c0.2,0,0.2,0.2,0.2,0.4c1.8,0,3.6,0,5.4,0c1.6,0,3.1-0.6,4.5-1.2c2.1-0.9,4-2.3,6-3.4
		c2-1.1,3.9-2.2,5.8-3.3c2.1-1.2,4.1-2.4,6.2-3.6c2.1-1.2,4.3-2.5,6.4-3.8c1.3-0.8,2.6-1.5,3.9-2.2c2.1-1.2,4.1-2.4,6.2-3.6
		c1.8-1,3.6-2,5.4-3c2.6-1.4,5.1-3,7.7-4.5c1.8-1,3.5-2.1,5.2-3.1c2.5-1.4,5-2.8,7.5-4.2c1.4-0.8,2.8-1.7,4.2-2.5
		c1.4-0.8,2.8-1.5,4.2-2.4c1.5-1,3.2-1.7,4.7-2.7c1.2-0.7,2.4-1.3,3.5-2.3c1.8-1.6,3.2-3.5,4.2-5.7c0.8-1.9,1.7-3.7,1.7-5.9
		C189.1,114.4,189.1,85.9,189.2,57.4z M157.2,94.8c0,0.6-0.2,0.7-0.7,0.7c-1.1,0-2.2,0-3.4,0c-0.5,0-0.8,0.1-0.8,0.7
		c-0.1,1.9-0.3,3.7-0.6,5.6c-0.1,0.5,0,0.6,0.5,0.6c1,0,2.1,0,3.1,0c0.5,0,0.6,0.2,0.6,0.6c0,1.1,0,2.3,0,3.4c0,0.5-0.2,0.6-0.6,0.6
		c-1.1,0-2.2,0-3.4,0c-0.6,0-0.8,0.1-0.8,0.7c-0.2,2.3-0.5,4.6-0.7,6.9c-0.1,0.7-0.3,0.9-1,0.9c-1.1-0.1-2.2-0.1-3.3,0
		c-0.7,0-0.8-0.2-0.7-0.8c0.3-2.3,0.5-4.6,0.7-6.8c0.1-0.7-0.1-0.8-0.8-0.8c-0.7,0-1.4,0-2.1,0l-1,0c-1.7,0-1.7,0-1.8,1.7
		c-0.2,2-0.4,4.1-0.6,6.1c0,0.5-0.2,0.7-0.7,0.6c-1.1-0.1-2.3-0.1-3.4,0c-0.9,0.1-0.9-0.5-0.8-1c0.5-2.3,0.5-4.5,0.8-6.8
		c0.1-0.5,0-0.6-0.5-0.6c-1.1,0-2.1,0-3.2,0c-0.5,0-0.6-0.1-0.6-0.6c0-1.1,0-2.3,0-3.4c0-0.5,0.2-0.6,0.6-0.6c1.2,0,2.4,0,3.5,0
		c0.4,0,0.6,0,0.7-0.5c0.2-2,0.4-3.9,0.6-5.9c0-0.4-0.1-0.5-0.5-0.5c-1,0-2.1,0-3.1,0c-0.5,0-0.6-0.1-0.6-0.6c0-1.1,0-2.3,0-3.4
		c0-0.5,0.1-0.6,0.6-0.6c1.1,0,2.3,0,3.4,0c0.4,0,0.6-0.1,0.6-0.6c0.2-2.2,0.5-4.3,0.7-6.5c0-0.5,0.2-0.7,0.7-0.6c1.2,0,2.4,0,3.6,0
		c0.5,0,0.6,0.1,0.6,0.6c-0.2,2.1-0.4,4.1-0.7,6.2c-0.1,0.6,0,0.9,0.8,0.9c1.4-0.1,2.7,0,4.1,0c0.5,0,0.7-0.1,0.7-0.7
		c0.2-2.1,0.4-4.2,0.6-6.3c0-0.5,0.2-0.8,0.8-0.7c1.1,0.1,2.3,0.1,3.4,0c0.7,0,0.7,0.2,0.7,0.8c-0.2,2.1-0.4,4.2-0.6,6.3
		c-0.1,0.5,0.1,0.7,0.6,0.6c1,0,2,0,3,0c0.5,0,0.8,0.1,0.8,0.7C157.1,92.6,157.2,93.7,157.2,94.8z"/>
	<path class="st2" d="M146.9,95.8c-1.5,0-2.9,0-4.4,0c-0.5,0-0.6,0.2-0.6,0.6c-0.1,1.7-0.4,3.4-0.5,5c-0.1,1.3-0.1,1.3,1.2,1.3h1.5
		c0.8,0,1.5,0,2.3,0c0.3,0,0.5,0,0.6-0.4c0.2-1.9,0.4-3.9,0.6-5.8C147.5,96,147.4,95.8,146.9,95.8z"/>
</g>
<g>
	<path class="st3" d="M189.1,55.4c0-1.2-0.7-2.4-1.2-3.6c-0.5-1.4-1.8-2.2-1.5-1.8c0,0-0.3,0.2-0.7,0.5c-2.2,1.2-4.4,2.5-6.5,3.7
		c-2.9,1.7-5.8,3.4-8.8,5.1c-3,1.7-6,3.4-9,5.1c-2.9,1.7-5.9,3.4-8.8,5.1c-0.3,0.2-0.6,0.4-0.8,0.6c0,0-0.1,0.1-0.1,0.1
		c-0.1,0.4-0.2,0.5-0.6,0.3c-0.1,0-0.1,0.1-0.2,0.1c0,0.1,0,0.2-0.1,0.1c-0.3,0.1-0.5,0.3-0.8,0.4c0,0.2-0.1,0.3-0.3,0.2l0,0
		c-0.3,0.7-1,0.8-1.7,1c-0.1,0.1-0.3,0.1-0.4,0.2c0,0.2-0.2,0.3-0.4,0.3c-0.2,0.1-0.4,0.2-0.5,0.2c0,0.2-0.2,0.3-0.4,0.2
		c-0.1,0.1-0.3,0.2-0.4,0.2c0,0.1,0,0.1-0.1,0.1c-0.2,0.1-0.5,0.2-0.7,0.3c-0.1,0.2-0.2,0.3-0.5,0.3c-5.9,3.4-11.8,6.8-17.8,10.3
		c-2.9,1.2-5.5,3-8.2,4.5c-3.8,2.2-7.6,4.4-11.4,6.6c-1.8,1.1-3.7,2.1-5.5,3.2c-0.3,0.2-0.6,0.3-0.7,0.7c1.6,0.9,3.2,1.8,4.7,2.6
		c2.6,1.5,5.2,2.9,7.8,4.4c0.4,0.2,0.8,0.6,1.2,0.9c0.4,0,0.7,0,0.9,0.4c0.2,0,0.4,0.1,0.4,0.4c1.5,0.5,2.8,1.6,4.2,2.3
		c1.8,0.9,3.5,2.2,5.4,2.9c0.7,0.2,1,0.5,1.7,0.9c1,0,1.7,0.8,2.5,1.2c0.9,0.4,1.8,1.1,2.7,1.5c0.6,0.2,1,1.1,1.8,0.9
		c0.6-0.1,0.9,0.1,0.9,0.8c0.2,0.2,0.5,0.3,0.8,0.2c0.5-0.1,0.9-0.1,0.8,0.6l0,0c0.3-0.1,0.4,0.1,0.5,0.4c0.2,0.2,0.5,0.3,0.7,0.4
		c0.3-0.2,0.3-0.2,0,0c0.2,0.4,0.7,0.6,1.1,0.6c0-0.2,0-0.4,0.1-0.5c0.1-0.3,0.4-0.4,0.7-0.3c0.3,0.2,0.2,0.5,0,0.7
		c-0.1,0.1-0.2,0.2-0.3,0.3c0.5,0.9,1.5,1,2.3,1.5c2.5,1.5,4.9,3,7.5,4.3c0.6,0.3,1.2,0.8,1.9,1c0.3,0.1,0.6,0.3,0.4,0.8
		c0,0.1,0,0.3,0,0.4c0.1,0,0.1,0,0.2,0c0.2,0,0.3,0,0.5,0.1c1.8,1,3.5,2,5.3,3c0.8,0.4,1.5,0.9,2.2,1.3c0.9,0.6,1.9,0.9,2.8,1.5
		c1.2,0.8,2.4,1.6,3.6,2.1c2.1,0.9,3.9,2.3,5.9,3.3c1.4,0.7,2.7,1.5,4,2.3c2.2,1.3,4.5,2.6,6.8,3.9c1.3,0.7,2.5,1.8,4,2c0,0,0,0,0,0
		c-0.5-0.6-0.2-1.4,0.2-1.7c0.5-0.5,0.6-1,0.7-1.6c0.1-0.8,0.5-1.5,0.6-2.3c0-0.3,0.3-0.4,0.5-0.5c0-24.8,0-49.5,0-74.3
		c0-0.4,0-0.9,0-1.3C189.2,63.1,189.3,59.3,189.1,55.4z M139.1,119.4C139.1,119.4,139.1,119.4,139.1,119.4
		C139.1,119.4,139.1,119.4,139.1,119.4z M144.3,119.4c-0.1,0-0.2-0.1-0.2-0.2c0-0.1,0-0.2,0.1-0.2c0.1,0,0.2,0.1,0.2,0.2
		C144.5,119.3,144.4,119.4,144.3,119.4z M155,106.3c-0.9,1.3-2.1,2.2-3.5,2.8c-0.2,1.6-0.4,3.2-0.5,4.8c0,0.6-0.2,0.8-0.8,0.8
		c-1.3,0-2.7,0-4,0c0.2-2.4,0.5-4.9,0.7-7.3c0.1-0.8-0.1-1-0.9-1c-1.2,0.1-2.5,0-3.7,0c-0.6,0-0.9,0.1-1,0.8
		c-0.2,2.3-0.5,4.5-0.7,6.8c0,0.6-0.2,0.8-0.8,0.7c-1.1,0-2.3,0-3.4,0c-0.6,0-0.7-0.1-0.7-0.7c0.2-1.9,0.3-3.8,0.5-5.7
		c0,0,0-0.1,0-0.1c0.2-0.6,0.5-1.3,0.1-1.6c-0.4-0.3-1.1-0.1-1.7-0.1c-0.8,0-1.7,0.2-2.2-0.1c-0.5-0.4-0.2-1.5-0.2-2.3
		c0-2.2,0-2.2,2.1-2.2c0.8,0,1.9,0.3,2.5-0.2c0.5-0.4,0.3-1.5,0.4-2.3c0.1-1.2,0.2-2.4,0.4-3.7c0.1-0.5,0-0.7-0.5-0.6
		c-0.9,0-1.9,0-2.8,0c-0.4,0-0.7-0.1-0.7-0.6c0-1.1,0-2.3,0-3.4c0-0.5,0.2-0.6,0.6-0.6c1.1,0,2.1,0,3.2,0c0.5,0,0.8-0.1,0.8-0.7
		c0.2-2.1,0.5-4.1,0.6-6.2c0-0.6,0.3-0.7,0.8-0.7c1.1,0,2.3,0,3.4,0c0.5,0,0.7,0.1,0.6,0.7c-0.2,2-0.4,4.1-0.6,6.1
		c-0.1,0.6,0,0.8,0.7,0.8c1.4-0.1,2.7,0,4.1,0c0.5,0,0.7-0.1,0.8-0.7c0.2-2,0.4-4.1,0.6-6.1c0.1-0.7,0.3-0.8,0.9-0.8
		c1,0.1,2.1,0.1,3.1,0c0.7,0,0.8,0.2,0.8,0.9c-0.2,2.2-0.5,4.4-0.7,6.7c1.2,0,2.4,0,3.7,0c0.5,0,0.7,0.2,0.7,0.7c0,1.1,0,2.1,0,3.2
		c0,0.6-0.2,0.7-0.7,0.7c-1.1,0-2.2,0-3.3,0c-0.6,0-0.8,0.2-0.8,0.8c-0.1,1.7-0.3,3.5-0.5,5.2c-0.1,0.8,0.2,0.9,0.9,0.9
		c0.9,0,1.8,0,2.6,0c0.5,0,0.6,0.1,0.6,0.6c0,1.3,0,2.6-0.1,4C155.9,106.3,155.4,106.3,155,106.3z"/>
	<path class="st4" d="M151.5,109.1c-0.2,1.6-0.4,3.2-0.5,4.8c0,0.6-0.2,0.8-0.8,0.8c-1.3,0-2.7,0-4,0c0.2-2.4,0.5-4.9,0.7-7.3
		c0.1-0.8-0.1-1-0.9-1c-1.2,0.1-2.5,0-3.7,0c-0.6,0-0.9,0.1-1,0.8c-0.2,2.3-0.5,4.5-0.7,6.8c0,0.6-0.2,0.8-0.8,0.7
		c-1.1,0-2.3,0-3.4,0c-0.6,0-0.7-0.1-0.7-0.7c0.2-1.9,0.3-3.8,0.5-5.7c0,0,0-0.1,0-0.1c0.2-0.6,0.5-1.3,0.1-1.6
		c-0.4-0.3-1.1-0.1-1.7-0.1c-0.8,0-1.7,0.2-2.2-0.1c-0.5-0.4-0.2-1.5-0.2-2.3c0-2.2,0-2.2,2.1-2.2c0.8,0,1.9,0.3,2.5-0.2
		c0.5-0.4,0.3-1.5,0.4-2.3c0.1-1.2,0.2-2.4,0.4-3.7c0.1-0.5,0-0.7-0.5-0.6c-0.9,0-1.9,0-2.8,0c-0.4,0-0.7-0.1-0.7-0.6
		c0-1.1,0-2.3,0-3.4c0-0.5,0.2-0.6,0.6-0.6c1.1,0,2.1,0,3.2,0c0.5,0,0.8-0.1,0.8-0.7c0.2-2.1,0.5-4.1,0.6-6.2c0-0.6,0.3-0.7,0.8-0.7
		c1.1,0,2.3,0,3.4,0c0.5,0,0.7,0.1,0.6,0.7c-0.2,2-0.4,4.1-0.6,6.1c-0.1,0.6,0,0.8,0.7,0.8c1.4-0.1,2.7,0,4.1,0
		c0.5,0,0.7-0.1,0.8-0.7c0.2-2,0.4-4.1,0.6-6.1c0.1-0.7,0.3-0.8,0.9-0.8c1,0.1,2.1,0.1,3.1,0c0.7,0,0.8,0.2,0.8,0.9
		c-0.2,2.2-0.5,4.4-0.7,6.7c1.2,0,2.4,0,3.7,0c0.5,0,0.7,0.2,0.7,0.7c0,1.1,0,2.1,0,3.2c0,0.6-0.2,0.7-0.7,0.7c-1.1,0-2.2,0-3.3,0
		c-0.6,0-0.8,0.2-0.8,0.8c-0.1,1.7-0.3,3.5-0.5,5.2c-0.1,0.8,0.2,0.9,0.9,0.9c0.9,0,1.8,0,2.6,0c0.5,0,0.6,0.1,0.6,0.6
		c0,1.3,0,2.6-0.1,4c-0.5,0-0.9,0-1.4,0c-0.2,0-0.4,0-0.7,0C151.6,106.2,151.6,106.2,151.5,109.1z M144.6,101.6
		C144.6,101.7,144.6,101.7,144.6,101.6c0.8,0.1,1.5,0.1,2.3,0.1c0.3,0,0.5,0.1,0.6-0.4c0.2-1.9,0.4-3.9,0.6-5.8c0-0.4,0-0.6-0.5-0.6
		c-1.5,0-3,0-4.5,0c-0.4,0-0.5,0.2-0.5,0.6c-0.1,1.2-0.3,2.4-0.4,3.6c-0.1,0.9-0.6,2-0.1,2.5C142.6,102,143.7,101.6,144.6,101.6z"/>
	<path class="st5" d="M148,72.4c0.5-0.5,1-0.9,1.7-1C149.4,72.2,148.7,72.3,148,72.4z"/>
	<path class="st6" d="M135.3,118.8c-0.3-0.2-0.8-0.3-0.9-0.8C135.1,117.9,135.4,118.2,135.3,118.8z"/>
	<path class="st6" d="M137,119.5c-0.4-0.1-0.8-0.1-0.8-0.6C136.6,118.9,137,118.9,137,119.5z"/>
	<path class="st5" d="M151.2,70.6c0.1-0.2,0.3-0.3,0.6-0.3C151.7,70.6,151.5,70.7,151.2,70.6z"/>
	<path class="st5" d="M147.2,72.9c0-0.2,0.1-0.4,0.4-0.3C147.6,72.9,147.5,73,147.2,72.9z"/>
	<path class="st6" d="M116.1,108.3c-0.2,0-0.4-0.1-0.4-0.4C115.9,108,116,108.1,116.1,108.3z"/>
	<path class="st6" d="M137.4,119.9c-0.2,0-0.5,0-0.5-0.4C137.3,119.5,137.4,119.6,137.4,119.9z"/>
	<path class="st5" d="M144.7,74.4c0.1-0.3,0.2-0.3,0.5-0.3C145.1,74.3,144.9,74.4,144.7,74.4z"/>
	<path class="st5" d="M149.7,71.5c0-0.2,0.1-0.3,0.3-0.2C150,71.4,149.9,71.5,149.7,71.5z"/>
	<path class="st5" d="M146.3,73.4c0-0.2,0.2-0.3,0.4-0.2C146.6,73.4,146.5,73.4,146.3,73.4z"/>
	<path class="st5" d="M150.8,70.8c0-0.1,0-0.2,0.1-0.1C151,70.8,150.9,70.9,150.8,70.8z"/>
	<path class="st5" d="M145.8,73.7c0-0.1,0-0.2,0.1-0.1C145.9,73.7,145.9,73.8,145.8,73.7z"/>
	<path class="st7" d="M100,100.2c0,0.3-0.2,0.4-0.5,0.3C99.6,100.3,99.8,100.2,100,100.2z"/>
	<path class="st8" d="M187.1,148.6c-0.5-0.6-0.2-1.4,0.2-1.7c0.5-0.5,0.6-1,0.7-1.6c0.1-0.8,0.5-1.5,0.6-2.3c0-0.3,0.3-0.4,0.5-0.5
		c0.1,1.9-0.9,3.5-1.6,5.2C187.5,148,187.6,148.4,187.1,148.6z"/>
	<path class="st7" d="M151.5,109.1c0.1-2.8,0.1-2.8,2.8-2.8c0.2,0,0.4,0,0.7,0C154.1,107.6,152.9,108.4,151.5,109.1z"/>
	<path class="st7" d="M139.7,121.1c-0.2,0.1-0.3,0-0.4-0.2c0-0.2,0-0.4,0.1-0.5c0.1-0.3,0.4-0.4,0.7-0.3c0.3,0.2,0.2,0.5,0,0.7
		C139.9,120.9,139.8,121,139.7,121.1z"/>
	<path class="st7" d="M144.3,119c0.1,0,0.2,0.1,0.2,0.2c0,0-0.1,0.1-0.2,0.1c-0.1,0-0.2-0.1-0.2-0.2
		C144.1,119.1,144.2,119,144.3,119z"/>
	<path class="st7" d="M144.6,101.6c-0.9,0-2.1,0.3-2.5-0.1c-0.5-0.5,0-1.6,0.1-2.5c0.1-1.2,0.3-2.4,0.4-3.6c0-0.4,0.1-0.6,0.5-0.6
		c1.5,0,3,0,4.5,0c0.5,0,0.5,0.2,0.5,0.6c-0.2,1.9-0.4,3.9-0.6,5.8c0,0.4-0.3,0.4-0.6,0.4C146.1,101.7,145.4,101.7,144.6,101.6
		C144.6,101.7,144.6,101.7,144.6,101.6z"/>
</g>
</svg>
