<?xml version="1.0" encoding="utf-8"?>
<!-- Generator: Adobe Illustrator 23.0.3, SVG Export Plug-In . SVG Version: 6.00 Build 0)  -->
<svg version="1.1" id="Layer_1" xmlns="http://www.w3.org/2000/svg" xmlns:xlink="http://www.w3.org/1999/xlink" x="0px" y="0px"
	 viewBox="0 0 1815.7 2048" style="enable-background:new 0 0 1815.7 2048;" xml:space="preserve">
<style type="text/css">
	.st0{fill-rule:evenodd;clip-rule:evenodd;fill:#1572B6;}
	.st1{fill-rule:evenodd;clip-rule:evenodd;fill:#35A8DB;}
	.st2{fill-rule:evenodd;clip-rule:evenodd;fill:#E9E9E8;}
	.st3{fill-rule:evenodd;clip-rule:evenodd;fill:#FFFFFE;}
	.st4{fill:none;}
</style>
<g id="Layer_x0020_1">
	<g id="_337846024">
		<polygon id="_337847128" class="st0" points="1652.5,1828.2 1813.6,23.7 1815.7,0 1791.9,0 23.7,0 0,0 2.1,23.7 163,1828.5 
			164.4,1843.5 178.9,1847.5 901,2048 912.6,2048 1636.6,1847.2 1651.1,1843.2 		"/>
		<polygon id="_337847104" class="st1" points="1675.7,128 907.8,128 907.8,1916.5 1531.5,1743.6 		"/>
		<g>
			<polygon id="_337846984" class="st2" points="907,608.5 365.4,834.1 383.3,1057.4 907,833.5 1464,595.3 1487.1,366.9 			"/>
			<polygon id="_337846144" class="st2" points="907,366.9 911,366.9 915.6,366.9 920.1,366.9 924.7,366.9 929.3,366.9 933.9,366.9 
				938.4,366.9 943,366.9 947.6,366.9 952.1,366.9 956.7,366.9 961.3,366.9 965.9,366.9 970.4,366.9 975,366.9 979.6,366.9 
				984.1,366.9 988.7,366.9 993.3,366.9 997.9,366.9 1002.4,366.9 1007,366.9 1011.6,366.9 1016.2,366.9 1020.7,366.9 1025.3,366.9 
				1029.9,366.9 1034.4,366.9 1039,366.9 1043.6,366.9 1048.2,366.9 1052.7,366.9 1057.3,366.9 1061.9,366.9 1066.5,366.9 
				1071,366.9 1075.6,366.9 1080.2,366.9 1084.7,366.9 1089.3,366.9 1093.9,366.9 1098.5,366.9 1103,366.9 1107.6,366.9 
				1112.2,366.9 1116.7,366.9 1121.3,366.9 1125.9,366.9 1130.5,366.9 1135,366.9 1139.6,366.9 1144.2,366.9 1148.8,366.9 
				1153.3,366.9 1157.9,366.9 1162.5,366.9 1167,366.9 1171.6,366.9 1176.2,366.9 1180.8,366.9 1185.3,366.9 1189.9,366.9 
				1194.5,366.9 1199.1,366.9 1203.6,366.9 1208.2,366.9 1212.8,366.9 1217.3,366.9 1221.9,366.9 1226.5,366.9 1231.1,366.9 
				1235.6,366.9 1240.2,366.9 1244.8,366.9 1249.3,366.9 1253.9,366.9 1258.5,366.9 1263.1,366.9 1267.6,366.9 1272.2,366.9 
				1276.8,366.9 1281.3,366.9 1285.9,366.9 1290.5,366.9 1295.1,366.9 1299.6,366.9 1304.2,366.9 1308.8,366.9 1313.4,366.9 
				1317.9,366.9 1322.5,366.9 1327.1,366.9 1331.7,366.9 1336.2,366.9 1340.8,366.9 1345.4,366.9 1349.9,366.9 1354.5,366.9 
				1359.1,366.9 1363.7,366.9 1368.2,366.9 1372.8,366.9 1377.4,366.9 1381.9,366.9 1386.5,366.9 1391.1,366.9 1395.7,366.9 
				1400.2,366.9 1404.8,366.9 1409.4,366.9 1413.9,366.9 1418.5,366.9 1423.1,366.9 1427.7,366.9 1432.2,366.9 1436.8,366.9 
				1441.4,366.9 1446,366.9 1450.5,366.9 1455.1,366.9 1459.7,366.9 1464.2,366.9 1468.8,366.9 1473.4,366.9 1478,366.9 
				1482.5,366.9 1487.1,366.9 1482.5,412.1 1478,457.3 1473.4,502.5 1468.8,547.8 1464.2,593 1464,595.3 1464,595.3 1459.7,595.3 
				1455.1,595.3 1450.5,595.3 1446,595.3 1441.4,595.3 1436.8,595.3 1432.2,595.3 1427.7,595.3 1423.1,595.3 1418.5,595.3 
				1413.9,595.3 1409.4,595.3 1404.8,595.3 1400.2,595.3 1395.7,595.3 1391.1,595.3 1386.5,595.3 1381.9,595.3 1377.4,595.3 
				1372.8,595.3 1368.2,595.3 1363.7,595.3 1359.1,595.3 1354.5,595.3 1349.9,595.3 1345.4,595.3 1340.8,595.3 1336.2,595.3 
				1331.7,595.3 1327.1,595.3 1322.5,595.3 1317.9,595.3 1313.4,595.3 1308.8,595.3 1304.2,595.3 1299.6,595.3 1295.1,595.3 
				1290.5,595.3 1285.9,595.3 1281.3,595.3 1276.8,595.3 1272.2,595.3 1267.6,595.3 1263.1,595.3 1258.5,595.3 1253.9,595.3 
				1249.3,595.3 1244.8,595.3 1240.2,595.3 1235.6,595.3 1231.1,595.3 1226.5,595.3 1221.9,595.3 1217.3,595.3 1212.8,595.3 
				1208.2,595.3 1203.6,595.3 1199.1,595.3 1194.5,595.3 1189.9,595.3 1185.3,595.3 1180.8,595.3 1176.2,595.3 1171.6,595.3 
				1167,595.3 1162.5,595.3 1157.9,595.3 1153.3,595.3 1148.8,595.3 1144.2,595.3 1139.6,595.3 1135,595.3 1130.5,595.3 
				1125.9,595.3 1121.3,595.3 1116.7,595.3 1112.2,595.3 1107.6,595.3 1103,595.3 1098.5,595.3 1093.9,595.3 1089.3,595.3 
				1084.7,595.3 1080.2,595.3 1075.6,595.3 1071,595.3 1066.5,595.3 1061.9,595.3 1057.3,595.3 1052.7,595.3 1048.2,595.3 
				1043.6,595.3 1039,595.3 1034.4,595.3 1029.9,595.3 1025.3,595.3 1020.7,595.3 1016.2,595.3 1011.6,595.3 1007,595.3 
				1002.4,595.3 997.9,595.3 993.3,595.3 988.7,595.3 984.1,595.3 979.6,595.3 975,595.3 970.4,595.3 965.9,595.3 961.3,595.3 
				956.7,595.3 952.1,595.3 947.6,595.3 943,595.3 938.6,595.3 938.4,595.3 933.9,595.3 929.3,595.3 924.7,595.3 920.1,595.3 
				915.6,595.3 911,595.3 907.7,595.3 907,595.3 906.4,595.3 901.9,595.3 897.3,595.3 892.7,595.3 888.1,595.3 883.6,595.3 
				879,595.3 874.4,595.3 869.8,595.3 865.3,595.3 860.7,595.3 856.1,595.3 851.6,595.3 847,595.3 842.4,595.3 837.8,595.3 
				833.3,595.3 828.7,595.3 824.1,595.3 819.6,595.3 815,595.3 810.4,595.3 805.8,595.3 801.3,595.3 796.7,595.3 792.1,595.3 
				787.5,595.3 783,595.3 778.4,595.3 773.8,595.3 769.3,595.3 764.7,595.3 760.1,595.3 755.5,595.3 751,595.3 746.4,595.3 
				741.8,595.3 737.3,595.3 732.7,595.3 728.1,595.3 723.5,595.3 719,595.3 714.4,595.3 709.8,595.3 705.2,595.3 700.7,595.3 
				696.1,595.3 691.5,595.3 687,595.3 682.4,595.3 677.8,595.3 673.2,595.3 668.7,595.3 664.1,595.3 659.5,595.3 654.9,595.3 
				650.4,595.3 645.8,595.3 641.2,595.3 636.7,595.3 632.1,595.3 627.5,595.3 622.9,595.3 618.4,595.3 613.8,595.3 609.2,595.3 
				604.7,595.3 600.1,595.3 595.5,595.3 590.9,595.3 586.4,595.3 581.8,595.3 577.2,595.3 572.6,595.3 568.1,595.3 563.5,595.3 
				558.9,595.3 554.4,595.3 549.8,595.3 545.2,595.3 540.6,595.3 536.1,595.3 531.5,595.3 526.9,595.3 522.4,595.3 517.8,595.3 
				513.2,595.3 508.6,595.3 504.1,595.3 499.5,595.3 494.9,595.3 490.3,595.3 485.8,595.3 481.2,595.3 476.6,595.3 472.1,595.3 
				467.5,595.3 462.9,595.3 458.3,595.3 453.8,595.3 449.2,595.3 444.6,595.3 440.1,595.3 435.5,595.3 430.9,595.3 426.3,595.3 
				421.8,595.3 417.2,595.3 412.6,595.3 408,595.3 403.5,595.3 398.9,595.3 394.3,595.3 389.8,595.3 385.2,595.3 380.6,595.3 
				376,595.3 371.5,595.3 366.9,595.3 362.3,595.3 357.7,595.3 353.2,595.3 348.6,595.3 344.8,595.3 344,588.9 339.5,551.9 
				334.9,514.9 330.3,477.9 325.7,440.9 321.2,403.9 316.6,366.9 321.2,366.9 325.7,366.9 330.3,366.9 334.9,366.9 339.5,366.9 
				344,366.9 348.6,366.9 353.2,366.9 357.7,366.9 362.3,366.9 366.9,366.9 371.5,366.9 376,366.9 380.6,366.9 385.2,366.9 
				389.8,366.9 394.3,366.9 398.9,366.9 403.5,366.9 408,366.9 412.6,366.9 417.2,366.9 421.8,366.9 426.3,366.9 430.9,366.9 
				435.5,366.9 440.1,366.9 444.6,366.9 449.2,366.9 453.8,366.9 458.3,366.9 462.9,366.9 467.5,366.9 472.1,366.9 476.6,366.9 
				481.2,366.9 485.8,366.9 490.3,366.9 494.9,366.9 499.5,366.9 504.1,366.9 508.6,366.9 513.2,366.9 517.8,366.9 522.4,366.9 
				526.9,366.9 531.5,366.9 536.1,366.9 540.6,366.9 545.2,366.9 549.8,366.9 554.4,366.9 558.9,366.9 563.5,366.9 568.1,366.9 
				572.6,366.9 577.2,366.9 581.8,366.9 586.4,366.9 590.9,366.9 595.5,366.9 600.1,366.9 604.7,366.9 609.2,366.9 613.8,366.9 
				618.4,366.9 622.9,366.9 627.5,366.9 632.1,366.9 636.7,366.9 641.2,366.9 645.8,366.9 650.4,366.9 654.9,366.9 659.5,366.9 
				664.1,366.9 668.7,366.9 673.2,366.9 677.8,366.9 682.4,366.9 687,366.9 691.5,366.9 696.1,366.9 700.7,366.9 705.2,366.9 
				709.8,366.9 714.4,366.9 719,366.9 723.5,366.9 728.1,366.9 732.7,366.9 737.3,366.9 741.8,366.9 746.4,366.9 751,366.9 
				755.5,366.9 760.1,366.9 764.7,366.9 769.3,366.9 773.8,366.9 778.4,366.9 783,366.9 787.5,366.9 792.1,366.9 796.7,366.9 
				801.3,366.9 805.8,366.9 810.4,366.9 815,366.9 819.6,366.9 824.1,366.9 828.7,366.9 833.3,366.9 837.8,366.9 842.4,366.9 
				847,366.9 851.6,366.9 856.1,366.9 860.7,366.9 865.3,366.9 869.8,366.9 874.4,366.9 879,366.9 883.6,366.9 888.1,366.9 
				892.7,366.9 897.3,366.9 901.9,366.9 906.4,366.9 			"/>
			<polygon id="_337846384" class="st2" points="366.2,834.1 1444.3,834.1 1424.7,1059.9 384.2,1057.4 			"/>
			<polygon id="_337846192" class="st2" points="399.9,1183.2 635.7,1183.3 651.1,1368 907,1431.4 1169.7,1357.7 1187.4,1055.7 
				1425.4,1051.9 1382.7,1542.5 907.8,1681.1 429.5,1539.9 			"/>
		</g>
		<g>
			<polygon id="_337846792" class="st3" points="907.8,833.1 1464,595.3 1487.1,366.9 907.8,608.1 			"/>
			<polygon id="_337846480" class="st3" points="907.8,366.9 911,366.9 915.6,366.9 920.1,366.9 924.7,366.9 929.3,366.9 
				933.9,366.9 938.4,366.9 943,366.9 947.6,366.9 952.1,366.9 956.7,366.9 961.3,366.9 965.9,366.9 970.4,366.9 975,366.9 
				979.6,366.9 984.1,366.9 988.7,366.9 993.3,366.9 997.9,366.9 1002.4,366.9 1007,366.9 1011.6,366.9 1016.2,366.9 1020.7,366.9 
				1025.3,366.9 1029.9,366.9 1034.4,366.9 1039,366.9 1043.6,366.9 1048.2,366.9 1052.7,366.9 1057.3,366.9 1061.9,366.9 
				1066.5,366.9 1071,366.9 1075.6,366.9 1080.2,366.9 1084.7,366.9 1089.3,366.9 1093.9,366.9 1098.5,366.9 1103,366.9 
				1107.6,366.9 1112.2,366.9 1116.7,366.9 1121.3,366.9 1125.9,366.9 1130.5,366.9 1135,366.9 1139.6,366.9 1144.2,366.9 
				1148.8,366.9 1153.3,366.9 1157.9,366.9 1162.5,366.9 1167,366.9 1171.6,366.9 1176.2,366.9 1180.8,366.9 1185.3,366.9 
				1189.9,366.9 1194.5,366.9 1199.1,366.9 1203.6,366.9 1208.2,366.9 1212.8,366.9 1217.3,366.9 1221.9,366.9 1226.5,366.9 
				1231.1,366.9 1235.6,366.9 1240.2,366.9 1244.8,366.9 1249.3,366.9 1253.9,366.9 1258.5,366.9 1263.1,366.9 1267.6,366.9 
				1272.2,366.9 1276.8,366.9 1281.3,366.9 1285.9,366.9 1290.5,366.9 1295.1,366.9 1299.6,366.9 1304.2,366.9 1308.8,366.9 
				1313.4,366.9 1317.9,366.9 1322.5,366.9 1327.1,366.9 1331.7,366.9 1336.2,366.9 1340.8,366.9 1345.4,366.9 1349.9,366.9 
				1354.5,366.9 1359.1,366.9 1363.7,366.9 1368.2,366.9 1372.8,366.9 1377.4,366.9 1381.9,366.9 1386.5,366.9 1391.1,366.9 
				1395.7,366.9 1400.2,366.9 1404.8,366.9 1409.4,366.9 1413.9,366.9 1418.5,366.9 1423.1,366.9 1427.7,366.9 1432.2,366.9 
				1436.8,366.9 1441.4,366.9 1446,366.9 1450.5,366.9 1455.1,366.9 1459.7,366.9 1464.2,366.9 1468.8,366.9 1473.4,366.9 
				1478,366.9 1482.5,366.9 1487.1,366.9 1482.5,412.1 1478,457.3 1473.4,502.5 1468.8,547.8 1464.2,593 1464,595.3 1464,595.3 
				1459.7,595.3 1455.1,595.3 1450.5,595.3 1446,595.3 1441.4,595.3 1436.8,595.3 1432.2,595.3 1427.7,595.3 1423.1,595.3 
				1418.5,595.3 1413.9,595.3 1409.4,595.3 1404.8,595.3 1400.2,595.3 1395.7,595.3 1391.1,595.3 1386.5,595.3 1381.9,595.3 
				1377.4,595.3 1372.8,595.3 1368.2,595.3 1363.7,595.3 1359.1,595.3 1354.5,595.3 1349.9,595.3 1345.4,595.3 1340.8,595.3 
				1336.2,595.3 1331.7,595.3 1327.1,595.3 1322.5,595.3 1317.9,595.3 1313.4,595.3 1308.8,595.3 1304.2,595.3 1299.6,595.3 
				1295.1,595.3 1290.5,595.3 1285.9,595.3 1281.3,595.3 1276.8,595.3 1272.2,595.3 1267.6,595.3 1263.1,595.3 1258.5,595.3 
				1253.9,595.3 1249.3,595.3 1244.8,595.3 1240.2,595.3 1235.6,595.3 1231.1,595.3 1226.5,595.3 1221.9,595.3 1217.3,595.3 
				1212.8,595.3 1208.2,595.3 1203.6,595.3 1199.1,595.3 1194.5,595.3 1189.9,595.3 1185.3,595.3 1180.8,595.3 1176.2,595.3 
				1171.6,595.3 1167,595.3 1162.5,595.3 1157.9,595.3 1153.3,595.3 1148.8,595.3 1144.2,595.3 1139.6,595.3 1135,595.3 
				1130.5,595.3 1125.9,595.3 1121.3,595.3 1116.7,595.3 1112.2,595.3 1107.6,595.3 1103,595.3 1098.5,595.3 1093.9,595.3 
				1089.3,595.3 1084.7,595.3 1080.2,595.3 1075.6,595.3 1071,595.3 1066.5,595.3 1061.9,595.3 1057.3,595.3 1052.7,595.3 
				1048.2,595.3 1043.6,595.3 1039,595.3 1034.4,595.3 1029.9,595.3 1025.3,595.3 1020.7,595.3 1016.2,595.3 1011.6,595.3 
				1007,595.3 1002.4,595.3 997.9,595.3 993.3,595.3 988.7,595.3 984.1,595.3 979.6,595.3 975,595.3 970.4,595.3 965.9,595.3 
				961.3,595.3 956.7,595.3 952.1,595.3 947.6,595.3 943,595.3 938.6,595.3 938.4,595.3 933.9,595.3 929.3,595.3 924.7,595.3 
				920.1,595.3 915.6,595.3 911,595.3 907.8,595.3 			"/>
			<polygon id="_337845784" class="st3" points="907.8,834.1 1444.3,834.1 1424.7,1059.9 907.8,1058.7 			"/>
			<polygon id="_337845328" class="st3" points="907.8,1431.2 1169.7,1357.7 1187.4,1055.7 1425.4,1051.9 1382.7,1542.5 
				907.8,1681.1 907.8,1681.1 			"/>
		</g>
	</g>
</g>
<rect x="-116.2" class="st4" width="2048" height="2048"/>
</svg>
