<?xml version="1.0" encoding="UTF-8"?>
<!DOCTYPE svg PUBLIC "-//W3C//DTD SVG 1.1//EN" "http://www.w3.org/Graphics/SVG/1.1/DTD/svg11.dtd">
<!-- Creator: CorelDRAW -->
<svg xmlns="http://www.w3.org/2000/svg" xml:space="preserve" width="1500px" height="600px" shape-rendering="geometricPrecision" text-rendering="geometricPrecision" image-rendering="optimizeQuality" fill-rule="evenodd" clip-rule="evenodd"
viewBox="0 0 1338.36 531.55"
 xmlns:xlink="http://www.w3.org/1999/xlink">
 <defs>
   <linearGradient id="id0" gradientUnits="userSpaceOnUse" x1="669.181" y1="4.97935e-014" x2="669.181" y2="531.549">
    <stop offset="0" stop-color="#325D9F"/>
    <stop offset="0.388235" stop-color="#3698D3"/>
    <stop offset="0.4" stop-color="#3698D3"/>
    <stop offset="0.839216" stop-color="#3583BF"/>
    <stop offset="0.839216" stop-color="#3583BF"/>
    <stop offset="1" stop-color="#3583BF"/>
   </linearGradient>
   <linearGradient id="id1" gradientUnits="userSpaceOnUse" x1="244.069" y1="482.981" x2="244.069" y2="94.4356">
    <stop offset="0" stop-color="#2B5195"/>
    <stop offset="0.490196" stop-color="#338AC6"/>
    <stop offset="0.501961" stop-color="#338AC6"/>
    <stop offset="0.909804" stop-color="#5CB0DE"/>
    <stop offset="1" stop-color="#5CB0DE"/>
   </linearGradient>
   <linearGradient id="id2" gradientUnits="userSpaceOnUse" x1="190.116" y1="369.817" x2="190.116" y2="171.562">
    <stop offset="0" stop-color="#338AC6"/>
    <stop offset="1" stop-color="#338AC6"/>
   </linearGradient>
   <linearGradient id="id3" gradientUnits="userSpaceOnUse" x1="362.871" y1="150.632" x2="464.611" y2="150.632">
    <stop offset="0" stop-color="#1CAAE4"/>
    <stop offset="1" stop-color="#199CCB"/>
   </linearGradient>
   <linearGradient id="id4" gradientUnits="userSpaceOnUse" x1="393.563" y1="-5.70918" x2="507.465" y2="50.5218">
    <stop offset="0" stop-color="#6FC2E3"/>
    <stop offset="0.701961" stop-color="#31AFE1"/>
    <stop offset="1" stop-color="#31AFE1"/>
   </linearGradient>
   <linearGradient id="id5" gradientUnits="userSpaceOnUse" x1="473.851" y1="53.9057" x2="573.973" y2="6.83219">
    <stop offset="0" stop-color="#51B9E2"/>
    <stop offset="1" stop-color="#33A2DC"/>
   </linearGradient>
   <linearGradient id="id6" gradientUnits="userSpaceOnUse" x1="653.508" y1="53.931" x2="653.508" y2="476.797">
    <stop offset="0" stop-color="#325D9F"/>
    <stop offset="0.388235" stop-color="#3698D3"/>
    <stop offset="0.4" stop-color="#3698D3"/>
    <stop offset="0.839216" stop-color="#3583BF"/>
    <stop offset="0.839216" stop-color="#3583BF"/>
    <stop offset="1" stop-color="#3583BF"/>
   </linearGradient>
   <linearGradient id="id7" gradientUnits="userSpaceOnUse" x1="739.984" y1="455.432" x2="739.984" y2="10.8378">
    <stop offset="0" stop-color="#34579A"/>
    <stop offset="0.501961" stop-color="#1CAAE4"/>
    <stop offset="1" stop-color="#1CAAE4"/>
   </linearGradient>
   <linearGradient id="id8" gradientUnits="userSpaceOnUse" x1="583.812" y1="90.6764" x2="583.812" y2="519.912">
    <stop offset="0" stop-color="#377EBB"/>
    <stop offset="0.341176" stop-color="#42B6E6"/>
    <stop offset="0.34902" stop-color="#42B6E6"/>
    <stop offset="0.839216" stop-color="#376AA9"/>
    <stop offset="0.839216" stop-color="#376AA9"/>
    <stop offset="1" stop-color="#376AA9"/>
   </linearGradient>
   <linearGradient id="id9" gradientUnits="userSpaceOnUse" x1="653.262" y1="21.2622" x2="653.262" y2="510.289">
    <stop offset="0" stop-color="#1F3E6A"/>
    <stop offset="0.380392" stop-color="#3476B4"/>
    <stop offset="0.388235" stop-color="#3476B4"/>
    <stop offset="0.780392" stop-color="#244A87"/>
    <stop offset="0.780392" stop-color="#244A87"/>
    <stop offset="1" stop-color="#244A87"/>
   </linearGradient>
   <linearGradient id="id10" gradientUnits="userSpaceOnUse" x1="998.22" y1="16.9404" x2="998.22" y2="406.564">
    <stop offset="0" stop-color="#3291CD"/>
    <stop offset="1" stop-color="#3995CF"/>
   </linearGradient>
   <linearGradient id="id11" gradientUnits="userSpaceOnUse" x1="1124.37" y1="494.023" x2="1124.37" y2="26.0017">
    <stop offset="0" stop-color="#2E5EA0"/>
    <stop offset="0.6" stop-color="#35B3EA"/>
    <stop offset="1" stop-color="#35B3EA"/>
   </linearGradient>
   <linearGradient id="id12" gradientUnits="userSpaceOnUse" x1="1133.67" y1="44.4732" x2="1050.94" y2="474.139">
    <stop offset="0" stop-color="#3B91CC"/>
    <stop offset="0.960784" stop-color="#3774B2"/>
    <stop offset="0.960784" stop-color="#3774B2"/>
    <stop offset="1" stop-color="#3774B2"/>
   </linearGradient>
 </defs>
 <g id="Нашивка">
  <metadata id="CorelCorpID_0Corel-Layer"/>
  <path fill="url(#id0)" d="M133.213 531.55l4.77756 0c18.5932,0 122.273,-10.4159 161.859,-107.675 31.198,-76.6535 46.3491,-134.969 63.0209,-191.59 27.9505,-39.7432 58.0117,-77.9521 91.2728,-113.656 3.38913,-3.63763 6.88189,-7.24777 10.4677,-10.8188 25.6802,85.1607 61.5796,281.829 116.29,361.06 24.8797,36.0295 57.354,50.673 92.418,51.041l2.61613 0.00105745 99.9851 0.0433555 15.3933 0.0063447 104.971 0.0454704 0.011632 0 38.6054 0.0169192c0.011632,0 0.0222065,0 0.0338384,0 35.9195,0 82.9591,-28.7098 135.175,-88.3151 67.7075,-77.288 213.304,-333.411 268.252,-431.709l-70.2686 0 -17.9735 0 -113.535 0c-99.247,0 -155.419,48.2885 -187.706,153.482 -10.1991,33.2283 -54.575,179.39 -89.0236,270.022 -8.43951,-25.4306 -14.5537,-50.1411 -19.0331,-65.9172 -28.4592,-100.216 -56.5768,-225.335 -77.7575,-262.005 -42.1045,-72.8911 -67.0381,-84.7166 -113.084,-84.7399l-9.03486 -0.0042298 -0.0084596 0 -41.635 -0.0222065 -8.19313 -0.0042298 -65.8845 -0.0338384 -149.422 -0.0782513 -5.8255 -0.00317235 -3.78673 -0.0021149c-25.5068,0.523438 -55.4982,11.835 -90.264,36.3139 -83.3779,58.7086 -187.664,189.784 -275.927,484.542l15.5297 0 40.8747 0 76.809 0z"/>
  <path fill="#117BCA" d="M445.867 44.285c-2.17941,2.3063 -4.34189,4.76487 -6.4864,7.38523 3.64609,5.31898 7.05214,11.099 10.2203,17.3073 3.85018,-3.00104 7.68026,-5.87731 11.4998,-8.63197 -4.78179,-5.64044 -9.85227,-11.0165 -15.2336,-16.0606z"/>
  <path fill="#2A74B1" d="M461.1 60.3455c-3.81951,2.75466 -7.6496,5.63092 -11.4998,8.63197 2.32322,4.55338 4.51954,9.33623 6.58897,14.3359 2.68169,6.479 5.485,14.7588 8.42154,24.4969 5.85405,-5.82973 11.9555,-11.5579 18.2537,-17.1339 -6.51707,-10.6401 -13.7342,-20.8582 -21.7644,-30.3309z"/>
  <path fill="#7CCAEB" d="M445.867 44.285c3.57736,-3.78673 7.19595,-7.16423 10.8463,-10.1727 -23.0334,-15.387 -48.7263,-22.0743 -80.9098,-23.413l-5.8255 -0.00317235c3.50545,0.0761364 6.92207,0.361648 10.253,0.849133 18.4747,1.32816 34.3809,8.71868 47.5842,18.0073 6.38066,4.48888 12.3891,9.42717 18.0517,14.7324z"/>
  <path fill="#05A1E6" d="M56.4044 531.55c5.4004,-42.3953 13.2403,-83.472 23.174,-122.714 -22.9403,44.9829 -44.9226,87.6383 -64.0487,122.714l40.8747 0z"/>
  <path fill="url(#id1)" d="M368.056 145.567c-74.9098,79.1375 -203.875,296.761 -234.843,385.983 26.2544,-7.00561 58.5383,-17.2935 80.8759,-56.6233 23.9936,-42.243 48.8183,-84.0092 73.8735,-126.009 23.6858,-39.7052 48.3435,-78.8615 74.9077,-116.633 12.1522,-41.2765 25.1134,-81.6521 45.6882,-127.576 -12.9051,12.2728 -26.3115,25.8663 -40.5025,40.8578zm-72.1551 -99.6996c-92.4825,59.9352 -173.687,194.544 -216.323,362.969 63.4343,-124.384 134.2,-266.565 172.179,-315.512 15.4525,-19.9139 30.1744,-35.487 44.1433,-47.4573z"/>
  <path fill="url(#id2)" d="M287.963 348.917c-25.0552,41.9998 -49.8799,83.7659 -73.8735,126.009 -22.3376,39.3298 -54.6216,49.6177 -80.877,56.6233l4.77862 0c18.5932,0 122.273,-10.4159 161.859,-107.675 31.198,-76.6535 46.3491,-134.969 63.0209,-191.59 -26.5642,37.7711 -51.2218,76.9274 -74.9077,116.633zm-272.433 182.632c19.1261,-35.0756 41.1084,-77.7311 64.0487,-122.714 42.6354,-168.424 123.84,-303.034 216.323,-362.969 32.2173,-27.6058 60.4238,-36.039 84.3296,-34.3217 -3.33097,-0.487485 -6.74759,-0.772996 -10.253,-0.849133l-3.78673 -0.0021149c-25.5068,0.523438 -55.4982,11.835 -90.264,36.3139 -83.3779,58.7086 -187.664,189.784 -275.927,484.542l15.5297 0z"/>
  <path fill="url(#id3)" d="M408.559 104.709c-20.5748,45.924 -33.536,86.2996 -45.6882,127.576 27.9505,-39.7432 58.0117,-77.9521 91.2728,-113.656 3.38913,-3.63763 6.88189,-7.24777 10.4677,-10.8188 -2.93654,-9.73806 -5.73984,-18.0179 -8.42154,-24.4969 -2.06943,-4.99963 -4.26576,-9.78248 -6.58897,-14.3359 -13.3249,10.3873 -26.8815,22.2636 -41.0418,35.7313z"/>
  <path fill="#0C82CA" d="M408.559 104.709c14.1603,-13.4677 27.7168,-25.3439 41.0418,-35.7313 -3.16812,-6.20829 -6.57417,-11.9883 -10.2203,-17.3073 -9.30768,11.3697 -18.277,25.7817 -26.708,44.0037 -1.40429,3.03594 -2.77581,6.04756 -4.11348,9.03486z"/>
  <path fill="#0C82CA" d="M380.231 11.5452c24.1892,3.5414 43.8049,17.7472 59.1496,40.125 2.14451,-2.62036 4.307,-5.07894 6.4864,-7.38523 -5.66265,-5.30523 -11.6711,-10.2435 -18.0517,-14.7324 -13.2033,-9.28865 -29.1095,-16.6792 -47.5842,-18.0073z"/>
  <path fill="#11599E" d="M461.1 60.3455c8.03028,9.47264 15.2474,19.6908 21.7644,30.3309 5.42261,-4.80083 10.9901,-9.4885 16.6718,-14.0345 -2.68064,-3.73915 -5.36233,-7.22556 -8.04191,-10.4349 -4.99117,-5.97671 -10.0183,-11.3782 -15.1289,-16.2477 -5.08422,3.24849 -10.1653,6.70847 -15.2654,10.3863z"/>
  <path fill="#5DC4ED" d="M461.1 60.3455c5.10008,-3.67781 10.1811,-7.13779 15.2654,-10.3863 -6.387,-6.08457 -12.9062,-11.339 -19.6527,-15.847 -3.65032,3.00845 -7.26892,6.38594 -10.8463,10.1727 5.38137,5.04404 10.4518,10.4201 15.2336,16.0606z"/>
  <path fill="url(#id4)" d="M375.803 10.6993c32.1835,1.33873 57.8764,8.02605 80.9098,23.413 22.5131,-18.5551 46.2021,-23.0789 68.5122,-23.3348l-149.422 -0.0782513z"/>
  <path fill="url(#id5)" d="M525.225 10.7775c-22.3101,0.255903 -45.9991,4.77968 -68.5122,23.3348 6.74653,4.50791 13.2657,9.76238 19.6527,15.847 35.6498,-22.7807 71.4414,-35.1634 114.744,-39.1479l-65.8845 -0.0338384z"/>
  <path fill="#13549A" d="M591.11 10.8114c-43.3026,3.98447 -79.0941,16.3672 -114.744,39.1479 5.11066,4.86956 10.1378,10.271 15.1289,16.2477 2.67958,3.20936 5.36127,6.69578 8.04191,10.4349 27.9558,-22.3651 58.6557,-41.2649 88.2548,-53.0248 10.9911,-4.36727 21.83,-7.749 32.321,-9.95907 -7.35034,-1.78498 -14.32,-2.55903 -20.8096,-2.84243l-8.19313 -0.0042298z"/>
  <path fill="url(#id6)" d="M587.791 23.6171c42.1976,25.7732 67.5817,65.4943 99.2354,152.146 28.5966,78.2788 49.8429,171.305 79.1819,229.735 12.6355,25.1652 25.3513,46.734 39.076,64.145 6.4293,-4.55444 12.7296,-9.30768 18.867,-14.2111 -36.0866,-79.7815 -73.5975,-323.827 -146.091,-404.528 -20.5939,-22.9255 -40.3618,-32.9766 -57.9483,-37.2466 -10.491,2.21007 -21.3298,5.5918 -32.321,9.95907zm59.931 384.975c-35.9935,-63.7505 -91.8988,-253.435 -148.186,-331.951 -5.68168,4.54598 -11.2492,9.23366 -16.6718,14.0345 30.8723,50.4097 46.0181,110.294 57.3551,145.213 16.5068,50.8412 55.9867,249.135 162.792,281.18 10.1579,-1.97003 20.4109,-4.91397 30.6481,-8.67215 -27.8998,-15.0264 -55.4961,-45.8881 -85.938,-99.8054z"/>
  <path fill="url(#id7)" d="M678.061 50.9046c72.4935,80.7004 110.004,324.746 146.091,404.528 12.3891,-9.89774 24.1162,-20.4077 34.899,-31.1282 0.268592,-0.267535 0.537185,-0.534013 0.80472,-0.80049 -8.43951,-25.4306 -14.5537,-50.1411 -19.0331,-65.9172 -28.4592,-100.216 -56.5768,-225.335 -77.7575,-262.005 -42.1045,-72.8911 -67.0381,-84.7166 -113.084,-84.7399l-9.04332 -0.0042298c-6.74019,0.360591 -13.7024,1.3197 -20.8254,2.82022 17.5865,4.26999 37.3544,14.3211 57.9483,37.2466z"/>
  <path fill="url(#id8)" d="M703.012 517.07c-106.806,-32.045 -146.286,-230.339 -162.792,-281.18 -11.3369,-34.9191 -26.4828,-94.8036 -57.3551,-145.213 -6.29818,5.57594 -12.3997,11.3031 -18.2537,17.1339 25.6802,85.1607 61.5796,281.829 116.29,361.06 24.8797,36.0295 57.354,50.673 92.418,51.041l2.61613 0.00105745c8.89527,-0.084596 17.9471,-1.07014 27.0771,-2.84243z"/>
  <path fill="url(#id9)" d="M733.66 508.398c24.4726,-8.9841 48.8542,-22.6231 71.6243,-38.7545 -13.7247,-17.4109 -26.4405,-38.9797 -39.076,-64.145 -29.339,-58.4305 -50.5853,-151.457 -79.1819,-229.735 -31.6537,-86.6517 -57.0378,-126.373 -99.2354,-152.146 -29.5991,11.7599 -60.299,30.6597 -88.2548,53.0248 56.287,78.5157 112.192,268.2 148.186,331.951 30.4419,53.9173 58.0371,84.779 85.938,99.8054zm396.485 -496.395c-78.5601,146.444 -123.245,230.569 -174.641,301.165 -20.0672,61.6261 -41.1052,120.336 -58.0308,147.422 -4.44975,7.11981 -9.06235,13.4021 -13.8071,18.9411 6.96225,12.1787 14.8244,22.603 23.707,29.8243 0.990831,0.805777 1.99435,1.57137 3.01162,2.29467 1.88755,1.17906 3.92631,2.00704 6.13321,2.50616 42.8553,4.45504 104.598,-59.7745 143.199,-135.678 87.5897,-172.233 136.972,-276.506 190.403,-378.478l-113.535 0 -6.43987 12.0031zm-878.387 81.3211c-37.9794,48.9462 -108.745,191.128 -172.179,315.512 -9.93369,39.242 -17.7736,80.3187 -23.174,122.714l76.8079 0c30.9685,-89.2224 159.934,-306.846 234.844,-385.983 14.191,-14.9915 27.5973,-28.585 40.5025,-40.8578 1.33767,-2.9873 2.70919,-5.99892 4.11348,-9.03486 8.43,-18.222 17.4003,-32.634 26.708,-44.0037 -15.3447,-22.3778 -34.9604,-36.5836 -59.1496,-40.125 -23.9058,-1.7173 -52.1133,6.71587 -84.3296,34.3217 -13.9689,11.9703 -28.6907,27.5434 -44.1433,47.4573z"/>
  <path fill="#165EAA" d="M805.285 469.643c13.1177,16.64 27.1564,29.4817 42.9272,38.0354 12.2569,-6.07717 24.222,-15.0327 35.4542,-28.1472 -9.50965,-16.6358 -17.3432,-36.5434 -23.8106,-56.028 -0.267535,0.266478 -0.536127,0.532955 -0.80472,0.80049 -10.7828,10.7204 -22.51,21.2304 -34.899,31.1282 -6.13744,4.9034 -12.4377,9.65664 -18.867,14.2111zm91 50.3643c-17.8741,-0.296086 -33.6935,-4.53012 -48.0728,-12.3288 -0.603804,0.299259 -1.20867,0.592172 -1.81459,0.877684 -7.6422,3.60908 -15.3658,6.12687 -23.1487,7.86426 -10.7448,2.40781 -21.4842,3.31405 -31.935,3.5414l104.971 0.0454704zm-162.624 -11.6097c-10.2372,3.75818 -20.4902,6.70212 -30.6481,8.67215 -9.13003,1.77229 -18.1818,2.75783 -27.0771,2.84243l99.9851 0.0433555c-14.4205,-0.524495 -28.3777,-4.0807 -42.26,-11.5579z"/>
  <path fill="#079AE1" d="M859.855 423.504c6.46737,19.4846 14.301,39.3921 23.8106,56.028 4.74478,-5.53893 9.35738,-11.8212 13.8071,-18.9411 16.9256,-27.0866 37.9635,-85.7963 58.0308,-147.422 -27.7845,38.1623 -57.5295,72.3719 -95.6485,110.335z"/>
  <path fill="url(#id10)" d="M859.855 423.504c38.119,-37.9635 67.864,-72.1731 95.6485,-110.335 26.5198,-81.4406 51.3456,-167.975 62.7512,-193.352 19.6897,-43.807 47.5673,-92.3091 111.89,-107.813 2.1223,-3.95487 4.26787,-7.95626 6.43987,-12.0031 -99.247,0 -155.419,48.2885 -187.706,153.482 -10.1991,33.2283 -54.575,179.39 -89.0236,270.022z"/>
  <path fill="#1869BC" d="M907.373 509.356c-8.88258,-7.22133 -16.7447,-17.6457 -23.707,-29.8243 -11.2322,13.1145 -23.1973,22.0701 -35.4542,28.1472 14.3792,7.7987 30.1987,12.0327 48.0728,12.3288l0.011632 0 38.6054 0.0169192c-8.91008,-0.00740215 -17.0609,-3.06343 -24.517,-8.37395 -1.05005,-0.654562 -2.05357,-1.4191 -3.01162,-2.29467zm-173.713 -0.95805c13.8822,7.47723 27.8395,11.0334 42.26,11.5579l15.3933 0.0063447c0.0042298,0 0.00740215,0 0.011632,0 18.5826,-0.406061 38.0767,-2.95557 56.8866,-12.2833 -15.7708,-8.55372 -29.8095,-21.3954 -42.9272,-38.0354 -22.7701,16.1314 -47.1517,29.7704 -71.6243,38.7545z"/>
  <path fill="url(#id11)" d="M1063.02 412.864c-32.9893,37.5733 -72.2122,77.2002 -119.405,96.5315 -11.1138,4.55232 -19.9784,6.3722 -27.1003,4.7617 -2.2069,-0.499117 -4.24566,-1.3271 -6.13321,-2.50616 7.45714,5.31052 15.6069,8.36655 24.517,8.37395 0.011632,0 0.0222065,0 0.0338384,0 35.9195,0 82.9591,-28.7098 135.175,-88.3151 67.7075,-77.288 213.304,-333.411 268.252,-431.709l-70.2686 0c-44.0714,154.688 -112.3,307.205 -205.07,412.864z"/>
  <path fill="url(#id12)" d="M943.618 509.395c47.193,-19.3313 86.4159,-58.9582 119.405,-96.5315 92.7701,-105.658 160.999,-258.176 205.07,-412.864l-17.9735 0c-53.4319,101.972 -102.814,206.245 -190.403,378.478 -38.6012,75.9038 -100.344,140.133 -143.199,135.678 7.12193,1.6105 15.9865,-0.209375 27.1003,-4.7617zm74.637 -389.579c-11.4057,25.3767 -36.2314,111.911 -62.7512,193.352 51.3963,-70.5965 96.081,-154.721 174.641,-301.165 -64.3226,15.5043 -92.2002,64.0064 -111.89,107.813z"/>
  <path fill="#2F91C3" d="M620.112 13.658c7.12616,-1.50052 14.0916,-2.46069 20.8339,-2.82022l-41.6435 -0.0222065c6.48957,0.283397 13.4592,1.05745 20.8096,2.84243z"/>
 </g>
</svg>
