<?xml version="1.0" encoding="utf-8"?>
<!-- Generator: Adobe Illustrator 23.1.0, SVG Export Plug-In . SVG Version: 6.00 Build 0)  -->
<svg version="1.1" id="Layer_1" xmlns="http://www.w3.org/2000/svg" xmlns:xlink="http://www.w3.org/1999/xlink" x="0px" y="0px"
	 viewBox="0 0 200 200" style="enable-background:new 0 0 200 200;" xml:space="preserve">
<style type="text/css">
	.st0{fill:#1169AD;}
	.st1{fill:#8AB5D6;}
	.st2{fill:#4A8DC0;}
	.st3{fill:#85B2D4;}
	.st4{fill:#8DB7D7;}
	.st5{fill:#488BC0;}
	.st6{fill:#87B3D5;}
	.st7{fill:#4086BD;}
	.st8{fill:#2F7CB7;}
</style>
<title>jquery</title>
<path class="st0" d="M0,84.8c0.5-1.3,0.4-2.7,0.6-4c1.4-11.6,5.2-22.4,12-31.9c3.8-5.3,8.1-10.4,12.1-15.5c0.4-0.5,0.7-1,1.3-1.4
	c0.1,0.4-0.2,0.7-0.3,1c-4.4,9.2-7,19.2-7.5,29.3c-0.9,16.2,2.6,31.5,9.6,46.1c5.6,11.7,13.2,22,22.5,31
	c14.5,14.2,31.6,24,51.2,29.2c6.4,1.7,12.9,2.5,19.4,3c6.1,0.5,12.2,0.4,18.3-0.2c17.9-1.8,34.2-7.7,47.8-19.9
	c2.8-2.5,5.3-5.2,7.6-8.2c0.1-0.2,0.3-0.3,0.5-0.5c-0.7,1.9-1.5,3.7-2.5,5.4c-13.4,24.3-33.5,39.8-60.7,45.8c-4.6,1-9.3,1.7-14,2
	c-0.2,0-0.5-0.1-0.6,0.2h-0.6c-0.3-0.2-0.7-0.1-1-0.1c-0.3,0-0.7-0.1-1,0.1h-10.2c-0.4-0.2-0.8-0.1-1.2-0.1
	c-0.4,0.1-0.8-0.1-1.2,0.1h-0.6c-1.7-0.2-3.4-0.1-5.1-0.3c-5.7-0.7-11.4-1.3-16.9-3.1c-6.6-2.2-13.1-4.7-19.3-8
	c-7.4-3.9-14.4-8.6-20.8-13.9c-3.9-3.3-7.7-6.8-11.1-10.6c-11-11.9-19.2-26-24.1-41.4c-1.9-6-3.2-12.3-3.9-18.6
	C0.1,99,0.2,97.8,0,96.6V96c0.2-0.4,0.1-0.8,0.1-1.2C0.1,94.4,0.2,94,0,93.6v-5.8c0.2-0.4,0.1-0.8,0.1-1.2c-0.1-0.4,0.1-0.8-0.1-1.2
	V84.8z"/>
<path class="st1" d="M0,85.4c0.4,0.3,0.1,0.8,0.2,1.2c-0.1,0.1-0.1,0.1-0.2,0L0,85.4z"/>
<path class="st2" d="M0,86.6l0.2,0c0,0.4,0.2,0.9-0.2,1.2L0,86.6z"/>
<path class="st2" d="M0,93.6c0.4,0.4,0.2,0.8,0.2,1.2c-0.1,0.1-0.1,0.1-0.2,0L0,93.6z"/>
<path class="st3" d="M0,94.8l0.2,0c0,0.4,0.2,0.8-0.2,1.2L0,94.8z"/>
<path class="st4" d="M102.1,196.1c0.3-0.4,0.8-0.1,1.2-0.2c0.1,0,0.1,0.1,0.1,0.1c0,0,0,0.1-0.1,0.1H102.1z"/>
<path class="st5" d="M103.3,196.1c0-0.1,0-0.1,0-0.2c0.4,0,0.9-0.2,1.2,0.2H103.3z"/>
<path class="st6" d="M115.7,196.1c0-0.1,0-0.1,0-0.2c0.3,0,0.7-0.2,1,0.2H115.7z"/>
<path class="st0" d="M77.2,14c-0.8,1.8-1.6,3.3-2.2,4.9c-3.6,8.7-4.9,17.7-4.1,27c1.3,16.2,7.9,30.1,18.5,42.2
	c12.1,13.8,27.2,22.9,45.2,26.8c15.5,3.4,30.6,2.2,45-4.9c7.8-3.8,14.6-9.5,19.7-16.4c0.2-0.3,0.3-0.6,0.8-0.7
	c-0.8,2.4-1.8,4.7-3.1,6.9c-9.5,17.3-23.9,28.1-43.2,32.3c-8.1,1.8-16.4,2.1-24.7,1.4c-3.3-0.2-6.5-0.6-9.7-1.2
	c-3.9-0.7-7.5-2.1-11.2-3.6c-10.9-4.5-20.4-11-28.7-19.5c-10.3-10.6-17.3-23-20.1-37.5c-2.9-14.8-1.2-29,6.7-42.1
	c3.3-5.4,7.1-10.3,10.7-15.4C76.9,14.2,77.1,14.1,77.2,14z"/>
<path class="st0" d="M193.4,57.9c-6.5,12-16.3,19.4-30.1,21c-6.2,0.7-12.4,0.4-18.5-1.1c-7.2-1.9-13.7-5.4-19.4-10.2
	C117.6,61,111.8,53,109.1,43c-3.3-11.9-1.5-23,5.8-33.1c1.3-1.8,2.6-3.6,3.9-5.3c0.1,0,0.3,0,0.1,0.2c-1.6,3.5-2.8,7.1-3.2,10.9
	c-0.9,6.7,0.1,13.5,2.7,19.8c6.8,16.4,18.9,26.8,36,31.3c6.7,1.7,13.6,2.4,20.5,1.2c7.2-1.2,13.3-4.4,18-10c0.1-0.1,0.1-0.1,0.2-0.2
	C193.4,57.6,193.5,57.6,193.4,57.9z"/>
<path class="st7" d="M193.4,57.9l-0.3-0.3c0.1-0.2,0.3-0.4,0.4-0.6c0.1-0.1,0.2-0.2,0.3-0.2C193.9,57.3,193.6,57.6,193.4,57.9z"/>
<path class="st8" d="M118.9,4.8l-0.1-0.2l0.5-0.7C119.3,4.2,119.1,4.5,118.9,4.8z"/>
</svg>
