<svg id="Layer_1" data-name="Layer 1" xmlns="http://www.w3.org/2000/svg" viewBox="0 0 503.52 504.97"><defs><style>.cls-1{fill:#efda4e;}.cls-2{fill:#e0d689;}.cls-3{fill:#32322f;}</style></defs><title>javascrpt</title><path class="cls-1" d="M503.52,505Q252.6,505,1.68,505c-1.8,0-2.21-.4-2.2-2.2Q-.46,251.89-.48,1H500.11c3.4,0,3.41,0,3.41,3.39Zm-230-273.16c-.37-.78-1.08-.44-1.63-.44q-21.83,0-43.64,0c-.54,0-1.27-.37-1.61.44-.06,1.12-.16,2.23-.16,3.34q0,78.22,0,156.43a65.31,65.31,0,0,1-.89,11.94c-1.31,7.12-4,13.53-11.07,16.62-9.46,4.11-24.93,4.48-34.33-7.2a95.27,95.27,0,0,1-8.6-13c-.63-1.12-1-1.7-2.46-.82q-17.77,10.89-35.67,21.6c-1.15.69-1.26,1.26-.67,2.44,7.84,15.59,19.15,27.73,35.31,34.76,19.85,8.63,40.37,9,61,3.5,14.68-3.93,26.44-12.25,34.41-25.44,7.22-12,10.1-25.17,10.14-38.95q.23-81.69.11-163.39A13.29,13.29,0,0,0,273.52,231.81ZM377.16,422.39a40.31,40.31,0,0,1-14.67-4.11c-9.87-4.7-16.87-12.48-22.74-21.43-1.7-2.58-1.69-2.59-4.46-1-11.21,6.48-22.38,13-33.65,19.39-1.91,1.08-1.92,1.88-.95,3.61,14.15,25.26,36.05,39.26,64.14,44.35,5.51,1,11.1,1.23,16.65,1.81l-1.89.28,0,.14h12.62v-.19l-2.35-.22c.87-.11,1.73-.28,2.6-.32a97.07,97.07,0,0,0,27-4.9c15.83-5.36,28.82-14.39,37.12-29.29,6.56-11.79,8.26-24.58,7.44-37.82-1.08-17.55-7.74-32.45-21.14-44.15-8.75-7.64-18.67-13.44-29.13-18.31-11.37-5.29-22.91-10.2-34.3-15.42a45.41,45.41,0,0,1-13.66-9.18c-8.13-8.2-8.64-28,7.8-33.52,11.33-3.82,22-1.89,31,6.48a45.48,45.48,0,0,1,8.08,10.67c.6,1,1.07,1.34,2.2.61q17.1-11.07,34.28-22c1-.62,1.08-1.13.52-2.08-7.52-12.74-17.11-23.41-30.82-29.58-18.1-8.15-37-8.94-56.12-4.7-29.49,6.56-48.25,29.43-49,59.18-.56,23.66,8.31,42.77,27.74,56.7A138.87,138.87,0,0,0,365.71,361c10.7,4.83,21.68,9,32.16,14.35,4.94,2.49,9.71,5.26,13.51,9.4a21.34,21.34,0,0,1-.85,29.67c-5.18,4.92-11.55,7.28-18.58,8Z"/><path class="cls-2" d="M503.52,505V4.37c0-3.39,0-3.39-3.41-3.39H-.48C-.28.66-.95,0,0,0,.56,0,1.12,0,1.68,0Q251.94,0,502.2,0c1.95,0,2.33.39,2.33,2.34q-.07,250.26-.12,500.52C504.41,503.43,505.6,505,503.52,505Z"/><path class="cls-3" d="M381.48,465c-5.55-.58-11.14-.81-16.65-1.81-28.09-5.09-50-19.09-64.14-44.35-1-1.73-1-2.53.95-3.61,11.27-6.37,22.44-12.91,33.65-19.39,2.77-1.61,2.76-1.6,4.46,1,5.87,8.95,12.87,16.73,22.74,21.43a40.32,40.32,0,0,0,14.66,4.11,44.56,44.56,0,0,0,14.8,0c7-.71,13.4-3.07,18.58-8a21.34,21.34,0,0,0,.85-29.67c-3.8-4.14-8.57-6.91-13.51-9.4-10.48-5.3-21.46-9.52-32.16-14.35a138.87,138.87,0,0,1-24.19-13.6c-19.43-13.93-28.3-33-27.74-56.7.72-29.75,19.48-52.62,49-59.18,19.1-4.24,38-3.45,56.12,4.7,13.71,6.17,23.3,16.84,30.82,29.58.56,1,.46,1.46-.52,2.08q-17.18,11-34.28,22c-1.13.73-1.6.42-2.2-.61a45.48,45.48,0,0,0-8.08-10.67c-9-8.37-19.63-10.3-31-6.48-16.44,5.54-15.93,25.32-7.8,33.52a45.41,45.41,0,0,0,13.66,9.18c11.39,5.22,22.93,10.13,34.3,15.42,10.46,4.87,20.38,10.67,29.13,18.31,13.4,11.7,20.06,26.6,21.14,44.15.82,13.24-.88,26-7.44,37.82-8.3,14.9-21.29,23.93-37.12,29.29a97.07,97.07,0,0,1-27,4.9c-.87,0-1.73.21-2.6.32Z"/><path class="cls-3" d="M273.52,231.81a13.29,13.29,0,0,1,.24,1.87q0,81.7-.11,163.39c0,13.78-2.92,27-10.14,38.95-8,13.19-19.73,21.51-34.41,25.44-20.64,5.53-41.16,5.13-61-3.5-16.16-7-27.47-19.17-35.31-34.76-.59-1.18-.48-1.75.67-2.44q17.88-10.74,35.67-21.6c1.44-.88,1.83-.3,2.46.82a95.27,95.27,0,0,0,8.6,13c9.4,11.68,24.87,11.31,34.33,7.2,7.11-3.09,9.76-9.5,11.07-16.62a65.31,65.31,0,0,0,.89-11.94q0-78.21,0-156.43c0-1.11.1-2.22.16-3.34Z"/><path class="cls-2" d="M273.52,231.81H226.64c.34-.81,1.07-.44,1.61-.44q21.83,0,43.64,0C272.44,231.37,273.15,231,273.52,231.81Z"/><path class="cls-2" d="M392,422.38a44.56,44.56,0,0,1-14.8,0Z"/><path class="cls-2" d="M381.48,465h8.41l2.35.22v.19H379.62l0-.14Z"/></svg>