<?xml version="1.0" encoding="utf-8"?>
<!-- Generator: Adobe Illustrator 23.1.0, SVG Export Plug-In . SVG Version: 6.00 Build 0)  -->
<svg version="1.1" id="Layer_1" xmlns="http://www.w3.org/2000/svg" xmlns:xlink="http://www.w3.org/1999/xlink" x="0px" y="0px"
	 viewBox="0 0 200 200" style="enable-background:new 0 0 200 200;" xml:space="preserve">
<style type="text/css">
	.st0{fill:#484C88;}
	.st1{fill:#ADB1D4;}
	.st2{fill:#6D71A4;}
	.st3{fill:#6A6EA2;}
	.st4{fill:#7276A8;}
	.st5{fill:#7074A6;}
	.st6{fill:#676BA0;}
	.st7{fill:#7377A9;}
	.st8{fill:#63679D;}
	.st9{fill:#777BAB;}
	.st10{fill:#5F639A;}
	.st11{fill:#6F73A5;}
	.st12{fill:#5B5F97;}
	.st13{fill:#575B94;}
	.st14{fill:#545791;}
	.st15{fill:#7B7FAE;}
	.st16{fill:#4F538E;}
	.st17{fill:#4B4F8B;}
	.st18{fill:#7E82B1;}
	.st19{fill:#8387B4;}
	.st20{fill:#A3A7CD;}
	.st21{fill:#868AB7;}
	.st22{fill:#A8ACD1;}
	.st23{fill:#8A8EBA;}
	.st24{fill:#9EA2C9;}
	.st25{fill:#8E92BD;}
	.st26{fill:#4D518C;}
	.st27{fill:#A5A9CE;}
	.st28{fill:#9296C0;}
	.st29{fill:#8286B4;}
	.st30{fill:#969AC3;}
	.st31{fill:#9A9EC6;}
	.st32{fill:#767AAB;}
	.st33{fill:#7A7EAE;}
	.st34{fill:#8B8FBA;}
	.st35{fill:#6B6FA3;}
	.st36{fill:#585C94;}
	.st37{fill:#51558F;}
	.st38{fill:#545892;}
	.st39{fill:#9DA1C8;}
	.st40{fill:#6E72A5;}
	.st41{fill:#767AB2;}
	.st42{fill:#A9ADD1;}
	.st43{fill:#A1A5CB;}
	.st44{fill:#FEFEFE;}
	.st45{fill:#C1C3DC;}
	.st46{fill:#777BB2;}
</style>
<title>php</title>
<path class="st0" d="M157.1,51.6c6.6,2.3,12.9,5.3,18.8,8.9c6.4,3.9,12.3,8.6,16.9,14.6c3.5,4.5,5.9,9.5,6.8,15.2
	c1,6.3-0.1,12.3-3,17.9c-3.1,6.2-7.7,11.1-13.1,15.4c-7.6,6.1-16.2,10.4-25.3,13.9c-9.8,3.7-19.9,6.2-30.3,7.8
	c-6.7,1-13.5,1.7-20.3,1.9c-0.3,0-0.5,0-0.8,0c-0.3,0.1-0.6,0.1-0.9,0.1c-0.1,0-0.3,0.1-0.4-0.2c0-0.2,0.1-0.3,0.2-0.4
	c0.3-0.3,0.7-0.5,1.1-0.7c1.6-0.9,3.3-1.8,4.8-2.9c1.1-0.4,2.3-0.3,3.4-0.4c4.3-0.3,8.6-0.8,12.9-1.5c6.5-1,12.9-2.4,19.1-4.2
	c6.4-1.8,12.6-4.1,18.6-7c5.9-2.8,11.5-6.2,16.5-10.4c4.5-3.8,8.4-8.2,10.9-13.6c1.9-4,2.9-8.2,2.6-12.7c-0.4-6.2-2.9-11.5-6.6-16.3
	c-4.7-6-10.6-10.4-17.2-14.2c-4.6-2.6-9.4-4.8-14.3-6.7c-0.4-0.1-0.8-0.2-0.9-0.7c-0.1-0.9-0.1-1.9-0.2-2.8
	C156.6,52.2,156.5,51.7,157.1,51.6z"/>
<path class="st1" d="M18.8,64.1c1.7-1.4,3.6-2.6,5.5-3.7c7.5-4.6,15.6-8,24-10.7c6.9-2.2,13.9-3.9,21.1-5c4.2-0.7,8.4-1.3,12.7-1.7
	c2.7-0.3,5.4-0.5,8.1-0.6c3-0.1,6-0.3,9-0.3c0,0.1,0,0.2,0,0.2c0,0,0,0,0,0c-0.5,0.2-1.1,0.1-1.6,0.1s-0.7,0.2-0.4,0.7
	c0.3,0.7,0.6,1.4,0.9,2.1c0.1,0.2,0.2,0.5,0,0.8c-0.7,0.2-1.4,0.3-2.1,0.3c-1.7,0.1-3.4,0.1-5,0.1c-2.7,0.1-5.3,0.3-8,0.6
	c-5,0.4-10,1.1-14.9,2c-8.1,1.4-16.2,3.6-23.9,6.4c-7.3,2.7-14.2,6-20.7,10.3c-0.7,0.5-1.4,1-2.1,1.5c-0.3,0.2-0.6,0.5-1.1,0.5
	c-0.5-0.2-0.6-0.6-0.7-1.1C19.1,65.8,19.1,65,18.8,64.1z"/>
<path class="st2" d="M33.1,133.8c-5.3-2.5-10.3-5.3-14.9-8.9c0.4-0.2,0.5-0.2,1.2,0.2c1.2,0.7,2.3,1.4,3.5,2c3.6,2,7.4,3.7,11.2,5.1
	c4.3,1.6,8.8,2.7,13.3,3.5c0.5,0.1,1,0.1,1.5,0.1c1.9,0.6,3.9,1.1,5.9,1.6c0.3,0.1,0.7,0,0.7,0.5c-0.9,0.4-1.8,0.2-2.7,0.1
	c-6.2-0.6-12.2-1.9-18.1-3.9C34.2,134,33.7,133.7,33.1,133.8z"/>
<path class="st3" d="M33.1,133.8c0.2-0.3,0.5-0.1,0.8,0c3.6,1.2,7.3,2.2,11,3c2.3,0.5,4.7,0.8,7.1,1.1c1.2,0.1,2.3,0.1,3.5,0.1
	c0.3-0.2,0.5-0.2,0.8-0.1c1.9,0.5,3.9,0.9,5.8,1.4c0.3,0.1,0.8-0.1,0.7,0.5c-0.5,0.3-1,0.5-1.6,0.5c-1,0.1-2,0.1-3,0
	c-2.2-0.2-4.3-0.2-6.5-0.5c-1.6-0.2-3.1-0.3-4.7-0.6c-0.1,0-0.3,0-0.4,0c-3.3-1-6.5-2.3-9.7-3.6C35.7,135,34.4,134.4,33.1,133.8z"/>
<path class="st4" d="M6.9,113.8c-1.2-1.5-2.2-3.1-3-4.8c0.3-0.3,0.3-0.4,0.6-0.1s0.6,0.6,0.8,1c4.7,5.1,10,9.6,15.9,13.2
	c1.5,0.9,3,1.7,4.6,2.4c1.2,0.5,2.2,1.2,3.4,1.9c2.5,1.4,5,2.6,7.5,3.8c0.2,0.1,0.6,0.1,0.6,0.5c-0.5,0.4-0.9,0.1-1.4,0
	c-1.8-0.6-3.7-1.2-5.4-2c-4.5-2-8.9-4.3-13-7.1c-3-2.1-5.9-4.4-8.6-6.9C8.3,114.9,7.5,114.4,6.9,113.8z"/>
<path class="st5" d="M6.9,113.8c0.8,0.3,1.5,0.9,2.1,1.5c3.9,3.7,8.2,6.9,12.8,9.6c4.3,2.6,8.9,4.7,13.6,6.3
	c0.6,0.2,1.2,0.4,1.9,0.4c0.4-0.2,0.8,0.1,1.1,0.2c1.7,0.7,3.5,1.4,5.3,2.1c0.3,0.1,0.8,0.1,0.9,0.6c-0.4,0.4-0.9,0.2-1.4,0.1
	c-5.5-1.2-10.8-3.1-15.8-5.5c-4.9-2.3-9.4-5.1-13.7-8.4c-0.9-0.7-1.6-1.6-2.6-2.1C9.5,117.2,8.1,115.6,6.9,113.8z"/>
<path class="st6" d="M46.8,139.2c-0.1-0.2-0.1-0.3,0.2-0.3c1.8,0.2,3.7,0.4,5.5,0.7c0.8,0.1,1.6,0.2,2.5,0.2
	c1.3,0.1,2.7,0.2,4.1,0.2c1.3,0,2.6,0.1,3.9-0.3c0.3-0.3,0.6-0.2,1-0.1c2.1,0.4,4.2,0.8,6.3,1.2c0.3,0,0.6,0,0.7,0.4
	c-0.1,0.4-0.5,0.5-0.8,0.5c-1.5,0.2-3,0.4-4.5,0.5c-2.4,0.2-4.8,0.2-7.2,0.1c-0.1,0-0.2,0-0.2,0.1C54.2,141.5,50.5,140.5,46.8,139.2
	z"/>
<path class="st7" d="M25.7,125.7c-1.8-0.7-3.4-1.7-5-2.7c-3.1-1.9-6.1-4.1-8.8-6.4c-2.6-2.2-5-4.6-7.2-7.1c-0.2-0.2-0.3-0.8-0.8-0.4
	c-1-1.6-1.7-3.3-2.2-5.2c0-0.4,0.2-0.3,0.3-0.2c0.4,0.2,0.7,0.5,0.9,0.9c2.5,3.4,5.5,6.3,8.5,9.2c0.4,0.4,0.9,0.8,1.4,1.1
	c2.7,2.8,5.6,5.3,8.7,7.6c1.2,0.9,2.4,1.6,3.6,2.4C25.3,125.1,25.8,125.2,25.7,125.7z"/>
<path class="st8" d="M58,142.4c-0.1-0.5,0.3-0.3,0.4-0.3c1.2,0,2.4,0,3.6,0c2.7-0.1,5.4-0.3,8-0.6c0.2,0,0.5-0.1,0.6-0.3
	c0.3-0.3,0.6-0.2,0.9-0.1c2.1,0.3,4.3,0.6,6.4,0.9c0.3,0,0.6,0,0.7,0.4c-0.4,0.5-1,0.5-1.6,0.7c-3,0.7-6.1,1.1-9.2,1.4
	c-0.2,0-0.4,0.1-0.5,0.1C64.3,143.9,61.1,143.2,58,142.4z"/>
<path class="st9" d="M12.7,115.1c-0.7-0.3-1.2-0.8-1.7-1.3c-1.6-1.5-3.1-3-4.6-4.6c-1.3-1.4-2.6-2.9-3.7-4.4
	c-0.3-0.4-0.5-0.9-1.1-0.9c-0.7-1.8-1.1-3.6-1.3-5.5c-0.1-0.4,0-0.5,0.3-0.3c0.3,0.2,0.5,0.5,0.7,0.8c1.2,1.9,2.5,3.7,3.9,5.4
	c0.3,0.4,0.7,0.8,1.1,1.1c0.9,1.7,1.8,3.3,2.8,4.8c1,1.5,2.1,2.9,3.3,4.3C12.6,114.6,12.8,114.8,12.7,115.1z"/>
<path class="st10" d="M67.5,144.4c0.1-0.3,0.4-0.4,0.7-0.4c3.2-0.3,6.4-0.8,9.5-1.5c0.4-0.1,0.6-0.4,1-0.3c0.3-0.3,0.6-0.2,0.9-0.2
	c1.7,0.2,3.5,0.4,5.2,0.5c0.2,0,0.5,0.1,0.6,0.3c0,0.3-0.3,0.3-0.5,0.4c-3.1,1-6.4,1.8-9.6,2.3c-0.1,0-0.2,0.1-0.3,0.1
	C72.5,145.3,70,144.9,67.5,144.4z"/>
<path class="st11" d="M11,118.6c0.9,0.2,1.4,1,2.1,1.5c3,2.3,6.1,4.4,9.4,6.3c4.7,2.7,9.7,4.8,14.8,6.4c2,0.6,4.1,1.1,6.1,1.7
	c0.4,0.1,0.7,0.1,1.1,0c0.2-0.1,0.4-0.2,0.6-0.1c1.1,0.4,2.3,0.7,3.4,1.1c0.2,0.1,0.4,0.1,0.3,0.4c-2.1,0-4.1-0.5-6.1-1
	c-5.6-1.3-11-3.2-16.2-5.7c-2.5-1.2-4.9-2.6-7.3-4c-0.3-0.2-0.7-0.4-1.1-0.4C15.6,123.1,13.2,121,11,118.6z"/>
<path class="st12" d="M75.1,145.6c0.3-0.4,0.8-0.4,1.2-0.4c2.9-0.6,5.7-1.2,8.5-2.2c0.3-0.1,0.5-0.1,0.8-0.1
	c0.4-0.3,0.9-0.3,1.3-0.2c1,0.1,2.1,0.2,3.1,0.2c0.2,0,0.5,0,0.7,0.2c0.1,0.7-0.4,0.8-0.8,0.9c-1.2,0.5-2.5,0.9-3.7,1.3
	c-1.3,0.4-2.6,0.7-3.9,1.2C79.8,146.2,77.4,146,75.1,145.6z"/>
<path class="st13" d="M82.1,146.4c0.1-0.5,0.6-0.5,0.9-0.6c2-0.6,4.1-1.2,6.1-1.9c0.6-0.2,1.1-0.4,1.6-0.8c0.2-0.2,0.5-0.3,0.7-0.2
	c1.6-0.1,3.1,0,4.7,0.2c0.6,0.5,0,0.7-0.3,0.8c-1.2,0.6-2.4,1-3.7,1.5c-1.2,0.5-2.5,0.9-3.7,1.3C86.3,146.8,84.2,146.7,82.1,146.4z"
	/>
<path class="st14" d="M88.4,146.9c0.2-0.4,0.6-0.5,1-0.6c2.1-0.7,4.2-1.5,6.2-2.4c0.3-0.1,0.5-0.3,0.7-0.5c0.1-0.2,0.4-0.2,0.6-0.2
	c1.6,0,3.2-0.1,4.8,0c0.4,0.1,0.3,0.3,0.1,0.6c-0.2,0.2-0.5,0.4-0.8,0.5c-1.9,0.8-3.8,1.8-5.7,2.5c0.2,0.1,0.5,0,0.6,0.4
	C93.3,147.2,90.9,147.1,88.4,146.9z"/>
<path class="st15" d="M6.3,105.4c-0.9-0.3-1.2-1.1-1.8-1.8c-1.3-1.6-2.4-3.3-3.6-5c-0.1-0.2-0.2-0.7-0.6-0.3C0,97.1,0,95.8,0,94.5
	c0.1-0.3,0-0.6,0.1-0.9c0-0.1,0-0.3,0.1-0.3s0.3,0,0.4,0.1c0.2,0.2,0.3,0.3,0.4,0.5c0.8,1.3,1.6,2.7,2.4,3.9c0.2,0.4,0.5,0.7,0.9,1
	c0.3,0.3,0.3,0.7,0.4,1c0.3,1.7,0.8,3.3,1.5,4.9C6.3,104.9,6.4,105.2,6.3,105.4z"/>
<path class="st16" d="M95.8,147.2c-0.3-0.3-0.7,0-1.1-0.3c1-0.6,2.2-1,3.2-1.5c1.1-0.5,2.3-1.1,3.4-1.6c0.2-0.1,0.5-0.3,0.6-0.5
	c0.1-0.1,0.2-0.2,0.4-0.2c1.7,0.1,3.4-0.3,5.1-0.1c0.2,0.1,0.4,0.3,0.1,0.4c-2.5,1.3-4.8,2.7-7.4,3.8L95.8,147.2z"/>
<path class="st17" d="M100.1,147.2c0.1-0.3,0.4-0.4,0.7-0.5c1.8-0.9,3.6-1.8,5.3-2.8c0.5-0.3,1-0.6,1.5-0.7c1.3-0.3,2.7-0.7,4-0.2
	c-0.8,1-2,1.4-3,2.1c-1,0.7-2.1,1-3.1,1.9l1.4,0.1C104.7,147.3,102.4,147.3,100.1,147.2z"/>
<path class="st18" d="M4.2,98.9c-0.5-0.1-0.7-0.4-0.9-0.8c-0.9-1.5-1.8-3-2.8-4.6c-0.1-0.1-0.2-0.2-0.3-0.2C0,93.7,0.3,94.2,0,94.5
	c0-1.8,0.2-3.7,0.6-5.5c0.6-0.2,0.6,0.3,0.8,0.6c0.7,1.3,1.4,2.6,2.2,3.9c0.3-0.8,0.3-0.8,0.6-0.6c0.1,0.2,0.1,0.5,0.1,0.8
	c-0.2,1.5,0,2.9,0.1,4.4C4.4,98.4,4.4,98.6,4.2,98.9z"/>
<path class="st19" d="M4,92.7c-0.4,0.3,0,0.8-0.3,1.2c-0.5-0.5-0.8-1.1-1.1-1.7c-0.5-0.9-1-1.8-1.5-2.8C1,89.3,0.9,89.1,0.6,89
	c0.1-1.1,0.4-2.2,0.8-3.2c0.5-0.4,0.6,0,0.8,0.3c0.4,0.7,0.7,1.5,1.1,2.2c0.3,0.7,0.7,1.3,1.1,1.9C4.4,91.1,4.4,92,4,92.7z"/>
<path class="st20" d="M13.3,68.5c0.9-0.8,1.7-1.6,2.7-2.3c0.6-0.2,0.7,0.3,0.7,0.7c0.2,0.9,0.2,1.9,0.6,2.8c0.1,0.2,0,0.4-0.1,0.5
	c-0.8,0.7-1.5,1.6-2.4,2.2c-0.1,0.1-0.2,0.1-0.3,0.1c-0.4-0.2-0.4-0.5-0.5-0.9C13.8,70.5,13.6,69.5,13.3,68.5z"/>
<path class="st21" d="M4.3,90.2c-0.3,0-0.4-0.2-0.6-0.5c-0.6-1.2-1.1-2.3-1.7-3.5C2,86,1.9,85.6,1.5,85.8c0.3-1.1,0.7-2.2,1.3-3.2
	c0.5-0.1,0.6,0.3,0.7,0.6c0.3,0.9,0.8,1.7,1.1,2.6c0.2,0.4,0.4,0.8,0.7,1.1C5,88.1,4.9,89.2,4.3,90.2z"/>
<path class="st22" d="M17.4,69.8c-0.4-0.1-0.4-0.5-0.5-0.7c-0.1-0.7-0.3-1.5-0.3-2.3c0-0.4-0.2-0.5-0.5-0.6c0.8-0.8,1.7-1.5,2.7-2.1
	c0.5,0.2,0.4,0.7,0.5,1.1c0.1,0.5,0.1,1.1,0.2,1.7c0,0.4,0.2,0.7,0.5,0.9c0,0.2,0,0.3-0.1,0.4c-0.6,0.5-1.3,1.1-2,1.6
	C17.7,69.8,17.5,69.8,17.4,69.8z"/>
<path class="st23" d="M5.1,87c-0.4,0-0.5-0.3-0.6-0.6c-0.4-1-0.9-2-1.3-3c-0.1-0.3-0.2-0.6-0.5-0.8c0.4-1,0.9-2,1.5-2.9
	c0.5,0,0.5,0.5,0.7,0.8c0.5,1.1,0.8,2.4,1.5,3.4C6.2,85,5.7,86,5.1,87z"/>
<path class="st24" d="M13.3,68.5c0.6,0.5,0.4,1.2,0.6,1.8c0.2,0.7,0.2,1.4,0.6,2c-0.5,1-1.2,1.9-2.4,2.3c-0.4-0.3-0.4-0.8-0.5-1.2
	c-0.2-0.9-0.5-1.8-0.7-2.7C11.8,69.9,12.5,69.2,13.3,68.5z"/>
<path class="st25" d="M6.3,83.9c-0.8-0.5-0.8-1.4-1.1-2.1c-0.4-0.7-0.4-1.5-1-2.1c0.4-0.9,1-1.8,1.6-2.6c0.5,0,0.5,0.4,0.6,0.7
	c0.3,0.7,0.5,1.4,0.7,2.1c0.1,0.4,0.4,0.7,0.6,1C7.5,82.1,7,83.1,6.3,83.9z"/>
<path class="st26" d="M157.1,51.6c-0.4,0.3-0.3,0.8-0.2,1.1c0.2,0.9,0.1,1.9,0.1,2.8c-1.1,0-2.1-0.4-3-1.1c-0.1-1-0.1-2.1-0.3-3.1
	c0-0.3-0.1-0.6,0.2-0.8C155,50.8,156.1,51.1,157.1,51.6z"/>
<path class="st21" d="M118.5,43.1c1,0,2,0.1,2.9,0.3c0.3,1,0.6,2,0.8,3.1c0.1,0.3,0.2,0.6-0.1,0.9c-1,0.1-2,0.1-2.9-0.3
	c-0.4-1.1-0.7-2.2-0.9-3.4C118.3,43.4,118.3,43.2,118.5,43.1z"/>
<path class="st27" d="M99,42.3c0,0,0-0.1,0-0.1h6.2c0.2,0,0.4,0,0.5,0.1c-0.4,0.4-1,0.2-1.5,0.2c-0.5,0-1,0-1.4,0
	c-0.6,0-0.7,0.2-0.5,0.7c0.3,0.5,0.4,1.1,0.6,1.6c0.1,0.3,0.3,0.7,0.1,1.1c-0.1,0.1-0.1,0.1-0.2,0.2c-0.8,0.2-1.6,0.2-2.3,0
	c-0.6-0.7-0.7-1.6-1.1-2.4C99.2,43.2,98.9,42.8,99,42.3z"/>
<path class="st28" d="M7.7,81c-0.6-0.1-0.6-0.6-0.8-1c-0.3-0.7-0.5-1.5-0.8-2.2c-0.1-0.2-0.1-0.5-0.4-0.6c0.4-0.8,1-1.6,1.6-2.2
	C8,74.7,8,75.2,8.1,75.5c0.4,1,0.6,2.2,1.1,3.2C8.9,79.6,8.5,80.4,7.7,81z"/>
<path class="st29" d="M122.2,47.3c-0.3-1.2-0.6-2.4-0.9-3.6c0-0.1,0.1-0.2,0.1-0.3c0.9,0,1.8,0.1,2.7,0.3c0.3,1.1,0.6,2.1,0.8,3.2
	c0.1,0.3,0,0.5-0.2,0.7C123.8,47.8,122.9,47.9,122.2,47.3z"/>
<path class="st30" d="M109.6,42.4c1,0,1.9-0.1,2.9,0.2c-0.9,0.5-0.9,0.5-0.5,1.5c0.1,0.4,0.3,0.8,0.4,1.1c0.3,1,0.2,1.2-0.9,1.3
	c-0.7,0-1.4,0-2.1,0c-0.3,0-0.7,0-1-0.3c0-0.3,0.3-0.3,0.5-0.3c0.6,0,0.6-0.3,0.4-0.7c-0.2-0.6-0.4-1.2-0.6-1.7
	C108.3,42.4,108.5,42.3,109.6,42.4z"/>
<path class="st31" d="M11.1,70.7c0.6,0.8,0.5,1.7,0.8,2.5c0.2,0.4,0.2,0.9,0.5,1.3c-0.2,1-0.9,1.6-1.7,2c-0.5-0.1-0.6-0.6-0.7-1
	c-0.3-1-0.5-1.9-0.9-2.9C9.7,72,10.3,71.3,11.1,70.7z"/>
<path class="st32" d="M128.9,44.4c0.8,0.2,1.8,0.1,2.6,0.4c0.5,1.3,0.9,2.5,0.7,3.9c-1,0.3-1.9,0.1-2.8-0.4c-0.2-1-0.3-2-0.6-3
	C128.6,45,128.7,44.6,128.9,44.4z"/>
<path class="st6" d="M138.1,46.1c1,0.1,1.9,0.3,2.9,0.7c-0.2,1,0.2,2,0.3,3c0,0.3,0.1,0.6-0.1,0.9c-0.9,0.3-1.7-0.1-2.5-0.4
	c-0.3-0.2-0.4-0.6-0.4-0.9c-0.1-0.8-0.3-1.6-0.4-2.4C137.8,46.6,137.6,46.2,138.1,46.1z"/>
<path class="st30" d="M9.1,72.8c0.3,0,0.3,0.2,0.4,0.4c0.2,0.9,0.5,1.7,0.7,2.6c0.1,0.3,0.1,0.7,0.5,0.7c-0.2,1-0.9,1.6-1.6,2.2
	c-0.7-0.6-0.7-1.5-1-2.3c-0.2-0.5-0.1-1.3-0.8-1.6C7.9,74.1,8.5,73.4,9.1,72.8z"/>
<path class="st33" d="M128.9,44.4c0,1.1,0.5,2.2,0.6,3.3c0,0.2,0,0.4-0.1,0.5c-0.9,0.4-1.7,0.2-2.5-0.3c-0.3-1.1-0.5-2.2-0.7-3.3
	c-0.1-0.2,0-0.5,0.1-0.7C127.2,44.1,128.1,44.2,128.9,44.4z"/>
<path class="st28" d="M111.5,46.3c0.7,0.1,0.9-0.2,0.6-0.8c-0.2-0.6-0.4-1.3-0.6-1.9c-0.3-0.9-0.3-0.9,0.7-1l0.3,0
	c0.7,0,1.5-0.1,2.2,0.2c-0.5,0.2-0.7,0.6-0.4,1.1c0.2,0.4,0.3,0.9,0.4,1.3c0.4,1.3,0.2,1.4-1.1,1.5c-0.5,0-1,0-1.5,0
	C111.9,46.7,111.6,46.7,111.5,46.3z"/>
<path class="st34" d="M118.5,43.1c0.1,1.1,0.6,2.1,0.7,3.2c0,0.2,0,0.4,0.1,0.6c0,0-0.1,0.1-0.1,0.1c-1.1,0.1-2.2,0.1-3.3-0.3
	c0-0.2,0.1-0.2,0.2-0.3c0.5-0.1,0.5-0.4,0.4-0.9c-0.2-0.6-0.4-1.3-0.5-1.9c-0.2-0.8-0.1-0.9,0.7-0.8
	C117.3,42.9,117.9,42.9,118.5,43.1z"/>
<path class="st31" d="M109.6,42.4c-1.1,0-1.1,0-0.7,1.1c0.2,0.6,0.4,1.2,0.6,1.8c0.2,0.6,0.2,0.9-0.6,0.8c-0.2,0-0.4,0-0.6,0
	c-0.3,0.2-0.6,0.3-0.9,0.1c-0.6-1.1-0.8-2.3-1.3-3.5c0-0.2,0-0.3,0.1-0.4C107.4,42.3,108.5,42.2,109.6,42.4z"/>
<path class="st10" d="M142.9,47.2c0.8,0.2,1.7,0.3,2.4,0.6c0.3,0.6,0.3,1.4,0.4,2.1c0.1,0.6,0.1,1.3,0.2,2c-1,0.3-1.7-0.2-2.6-0.6
	C142.9,50,142.7,48.6,142.9,47.2z"/>
<path class="st18" d="M126.3,44c0,0.7,0.3,1.4,0.4,2.2c0.1,0.6,0.3,1.1,0.2,1.7c-0.7,0.3-1.8,0.2-2.2-0.3c-0.1-1.2-0.5-2.3-0.7-3.4
	c0-0.2-0.2-0.3,0.1-0.5C124.9,43.7,125.6,43.8,126.3,44z"/>
<path class="st35" d="M138.1,46.1c0,1.4,0.2,2.7,0.6,4c-0.8,0.2-1.6-0.1-2.3-0.4c-0.2-0.2-0.4-0.5-0.4-0.8c-0.1-0.9-0.3-1.8-0.4-2.7
	c0-0.3-0.2-0.6,0.3-0.7C136.6,45.7,137.4,45.9,138.1,46.1z"/>
<path class="st8" d="M142.9,47.2c0.2,1.3,0.2,2.7,0.6,4c-0.9,0.2-1.7-0.1-2.4-0.6c-0.1-1-0.3-2-0.4-3c0-0.3-0.3-0.7,0.3-0.9
	C141.6,47,142.3,46.9,142.9,47.2z"/>
<path class="st36" d="M147.7,48.5c0.7,0.1,1.4,0.3,2.1,0.6c0.2,1.3,0.5,2.6,0.2,3.9c-0.9,0.3-1.6-0.1-2.3-0.6
	c-0.4-1.1-0.3-2.3-0.5-3.4C147.2,48.7,147.3,48.4,147.7,48.5z"/>
<path class="st37" d="M154,50.5c0.1,1,0.2,2,0.3,3.1c0.1,0.3,0,0.6-0.1,0.9c-0.9,0-1.7-0.1-2.3-0.9c-0.1-0.9-0.1-1.8-0.2-2.7
	c0-0.4-0.1-0.8,0.2-1.1C152.6,49.9,153.3,50.2,154,50.5z"/>
<path class="st4" d="M132.1,48.7c-0.2-1.3-0.4-2.6-0.6-3.9c0.9,0.2,1.8,0.1,2.6,0.5c-0.2,0.8,0.2,1.6,0.2,2.4c0,0.5,0.3,1,0,1.5
	C133.5,49.4,132.7,49.4,132.1,48.7z"/>
<path class="st25" d="M116.7,42.9c-0.6,0-0.7,0.2-0.5,0.7c0.2,0.6,0.4,1.3,0.5,1.9c0.3,1,0.2,1.1-0.8,1.1c-0.8,0.4-1.6,0.3-2.1-0.2
	c1,0,1,0,0.8-1c-0.1-0.6-0.3-1.2-0.5-1.7c-0.3-0.9-0.3-0.9,0.7-1C115.4,42.8,116.1,42.7,116.7,42.9z"/>
<path class="st38" d="M151.9,49.8c-0.1,1.3,0.3,2.6,0.1,3.9c-0.8,0.2-1.5-0.1-2.1-0.7c0-1.1-0.1-2.2-0.3-3.2c0-0.2,0-0.5,0.1-0.7
	C150.5,49.3,151.2,49.5,151.9,49.8z"/>
<path class="st12" d="M147.7,48.5c-0.3,0-0.4,0.2-0.3,0.5c0.2,1.1,0.3,2.2,0.5,3.4c-0.7,0.3-1.4,0-1.9-0.5c-0.6-0.5-0.3-1.1-0.4-1.7
	c-0.2-0.8-0.3-1.5-0.3-2.3C146.1,48,147,48.2,147.7,48.5z"/>
<path class="st39" d="M106.2,42.3c0.1,1,0.7,1.8,0.9,2.8c0.1,0.4,0.3,0.7,0.2,1.1c-0.2,0.2-0.5,0.3-0.8,0.3c-0.9,0-1.8,0-2.7,0
	c-0.3,0-0.7,0.1-0.8-0.4l0,0c0.4-0.3,0.8-0.2,1.2-0.2c0.7,0,0.8-0.1,0.6-0.8c-0.2-0.6-0.4-1.1-0.6-1.7c-0.1-0.3-0.3-0.6-0.1-1l1.6,0
	L106.2,42.3z"/>
<path class="st40" d="M134.4,49.2c-0.2-1.1-0.4-2.3-0.6-3.4c-0.1-0.2,0-0.4,0.2-0.5c0,0,0.1,0,0.1,0c0.6,0,1.2,0.1,1.7,0.3
	c-0.3,0.5,0,1,0.1,1.4c0.2,0.9,0.1,1.8,0.6,2.6C135.7,49.8,135,49.7,134.4,49.2z"/>
<path class="st41" d="M134.4,49.2l2.1,0.5l2.2,0.5c0.8,0.1,1.6,0.5,2.4,0.5l2.4,0.6l2.4,0.6c0.6,0.2,1.3,0.4,1.9,0.5
	c0.7,0.3,1.4,0.5,2.1,0.6c0.7,0.3,1.4,0.5,2.1,0.7c0.7,0.4,1.4,0.5,2.1,0.8l2.9,1c2.5,1.1,5.1,2,7.6,3.2c3.3,1.5,6.4,3.2,9.5,5
	c4.5,2.8,8.7,5.9,12.4,9.7c3.7,3.9,6.8,8.3,8.4,13.6c1,3,1.4,6.2,1.1,9.4c-0.5,6-2.9,11.2-6.5,15.9c-3.2,4.2-7.1,7.6-11.4,10.6
	c-3.5,2.5-7.1,4.6-11,6.5c-7,3.4-14.3,6.1-21.8,8.1c-5.3,1.4-10.7,2.6-16.1,3.5c-2.5,0.4-5.1,0.7-7.6,1c-3.3,0.5-6.7,0.6-10,1
	c-1.3-0.1-2.7,0.2-4,0.2l-5.8,0.2h-5.6c-1.9-0.1-3.7-0.2-5.6-0.2c-0.1-0.1-0.3-0.2-0.4-0.2c-1.6,0.1-3.1-0.2-4.7-0.2
	c-0.7-0.4-1.5-0.2-2.2-0.3c-1.5-0.2-3.1-0.3-4.6-0.4c-0.9-0.3-1.8-0.3-2.7-0.4c-1.8-0.3-3.5-0.5-5.3-0.7c-1.4-0.3-2.8-0.6-4.2-0.8
	c-1.2-0.2-2.4-0.6-3.7-0.7c-2-0.5-3.9-1-5.9-1.4c-0.5-0.1-0.9-0.4-1.5-0.3c-1.6-0.7-3.3-0.9-4.9-1.4c-0.5-0.2-1.1-0.3-1.7-0.5
	c-1.4-0.6-2.9-1.1-4.3-1.5c-1.7-0.7-3.4-1.4-5.2-2.1c-0.7-0.3-1.4-0.5-2.1-0.8c-2.1-1-4.2-2-6.2-3.1c-1.6-0.8-3.1-1.7-4.7-2.6
	c-0.2-0.1-0.4-0.2-0.7-0.3c-0.6-0.6-1.3-1-2-1.4c-2.7-1.8-5.3-3.7-7.7-5.9c-1.2-1-2.3-2.1-3.4-3.3c-1.6-1.7-3-3.6-4.3-5.6
	c-0.8-1.3-1.6-2.6-2.2-4c-0.9-2-1.6-4.1-1.9-6.2c0-0.1-0.1-0.3-0.2-0.3c-0.3-1.1-0.1-2.3-0.3-3.5c-0.2-0.9,0.3-1.7,0.1-2.6
	c0-0.9,0.2-1.7,0.3-2.6C4.5,89.1,4.8,88,5.1,87c0.2-1.1,0.8-2,1.1-3.1c0.5-1,1-1.9,1.4-2.9l1.4-2.3c0.5-0.7,1.1-1.5,1.6-2.2
	c0.5-0.6,1.2-1.2,1.6-1.9c0.8-0.7,1.6-1.4,2.2-2.2l2.8-2.6c0.9-0.6,1.8-1.3,2.6-2.1c2.3-1.5,4.5-3.1,6.9-4.5c4.8-2.8,9.8-5.2,15-7.2
	c7.7-2.9,15.6-5.2,23.7-6.7c3.9-0.8,7.9-1.4,11.9-1.8c3.5-0.4,7-0.7,10.5-1c2.6-0.2,5.1-0.3,7.7-0.3c0.7,0,1.5-0.1,2.2-0.1
	c0.8-0.4,1.8-0.4,2.6,0h2.6c0.7,0.3,1.4,0.1,2,0.1c0.8,0,1.5,0,2.3,0h1c1.1,0.4,2.1,0.1,3.2,0.2c0.7,0.3,1.5,0.1,2.3,0.2
	c0.7,0.3,1.4,0.1,2.1,0.2c1.1,0.2,2.2,0.3,3.4,0.3c1,0.2,1.9,0.3,2.9,0.3c0.8,0.2,1.7,0.3,2.6,0.3c0.7,0.2,1.5,0.3,2.2,0.3
	c0.8,0.2,1.6,0.4,2.4,0.3c0.9,0.3,1.8,0.5,2.7,0.5C132.8,49,133.6,49.1,134.4,49.2z"/>
<path class="st42" d="M100.5,46h-2.6c-0.4-1-0.8-2-1.3-3c-0.3-0.6-0.1-0.7,0.5-0.7c0.6,0,1.3,0,1.9,0C99.6,43.5,100.2,44.6,100.5,46
	z"/>
<path class="st43" d="M104.2,42.3c0.3,1,0.6,2,1,2.9c0.2,0.6,0.1,0.8-0.5,0.8c-0.5,0-1.1,0-1.6,0c0-1-0.5-1.8-0.9-2.7
	c-0.4-0.9-0.4-1,0.7-1L104.2,42.3z"/>
<path class="st44" d="M127.6,79.7c0.6-2.9,1.1-5.8,1.7-8.7c0.2-1.1,1.1-1.8,2.2-1.8c7.9,0,15.8-0.1,23.7,0c4.3,0.1,8.3,1,11.9,3.6
	c3.7,2.6,5.8,6.2,6.2,10.7c0.8,8.2-1.6,15.4-7.4,21.3c-3.9,4-8.6,6.2-14,6.9c-4.6,0.6-9.2,0.4-13.8,0.4c-0.7,0-1,0.2-1.1,0.9
	c-0.7,3.7-1.4,7.4-2.1,11c-0.3,1.5-1.1,2.1-2.6,2.1c-3.6,0-7.2,0-10.8,0c-1.8,0-2.8-1.1-2.4-2.9c0.7-3.8,1.4-7.5,2.2-11.2
	c-4.2,0.2-8.3,0.1-12.5,0.1c-1.7,0-2.7-1.2-2.3-2.9c1.5-7.8,3-15.5,4.5-23.3c0.2-0.9,0.3-1.7,0.2-2.6c0-0.5-0.4-0.8-0.8-1
	c-0.8-0.3-1.6-0.4-2.4-0.4c-2.6,0-5.3,0-7.9,0c-0.5,0-0.6,0.1-0.7,0.6c-1.8,9.2-3.5,18.3-5.3,27.5c-0.3,1.5-1.1,2.1-2.6,2.1
	c-3.6,0-7.1,0-10.7,0c-1.9,0-2.8-1.2-2.4-3c0.6-2.8,1.1-5.6,1.7-8.4c0-0.2,0-0.4,0-0.7c-0.8,1.3-1.8,2.5-2.8,3.6
	c-4,4.6-9,7.3-15.1,8c-4.5,0.6-9.1,0.4-13.6,0.4c-0.9,0-1.1,0.2-1.3,1.1c-0.7,3.7-1.4,7.3-2.1,10.9c-0.3,1.4-1.1,2-2.5,2
	c-3.6,0-7.2,0-10.8,0c-1.8,0-2.8-1.1-2.4-2.9c0.6-3.3,1.3-6.7,1.9-10c1.7-9,3.5-17.9,5.2-26.9c1-5,2-10.1,2.9-15.1
	c0.3-1.5,1.1-2.1,2.6-2.1c7.3,0,14.6,0,21.9,0c4.1,0,8.1,0.6,11.7,2.6c3.9,2.1,6.4,5.4,7.6,9.7c0.1,0.3,0.2,0.5,0.3,0.7
	c0.3-1.3,0.5-2.6,0.8-3.8c1.4-7,2.7-14,4.1-21c0.3-1.5,1-2.1,2.6-2.1c3.6,0,7.1,0,10.7,0c1.8,0,2.7,1.1,2.4,2.9
	c-0.7,3.4-1.3,6.8-2,10.2c-0.2,0.7,0,0.9,0.8,0.9c2.6,0,5.2-0.1,7.8,0c3.6,0.1,7.1,0.4,10.4,1.9c3.7,1.7,5.8,4.5,6.2,8.5
	c0.1,0.1,0.1,0.3,0.1,0.5C127.4,80.1,127.5,79.9,127.6,79.7z"/>
<path class="st45" d="M127.6,79.7c0.1,0.3-0.1,0.6-0.3,0.7v-0.7H127.6z"/>
<path d="M55.1,71.4c3.2,0,7.1-0.1,11,0.1c2.3,0.1,4.6,0.5,6.7,1.4c5.4,2.1,8.5,6.2,8.7,11.9c0.4,9.5-3.3,17.1-11.5,22.2
	c-3.1,1.9-6.6,2.6-10.2,2.9c-4.5,0.4-8.9,0.1-13.4,0.2c-0.6,0-0.8,0.2-1,0.8c-0.8,4.2-1.6,8.3-2.4,12.5c-0.1,0.6-0.3,0.7-0.9,0.7
	c-3.3,0-6.6,0-10,0c-0.8,0-0.8-0.2-0.7-0.8c1.4-7.2,2.8-14.5,4.2-21.7c1.9-9.8,3.8-19.6,5.7-29.4c0.1-0.6,0.3-0.8,1-0.8
	C46.5,71.5,50.5,71.4,55.1,71.4z"/>
<path d="M142.1,110.1c-2,0-4,0-5.9,0c-0.6,0-0.8,0.1-0.9,0.7c-0.8,4.2-1.6,8.4-2.4,12.6c-0.1,0.5-0.3,0.7-0.8,0.7
	c-3.4,0-6.8,0-10.2,0c-0.4,0-0.6,0-0.5-0.5c3.3-17.1,6.7-34.2,10-51.3c0.1-0.4,0-0.9,0.7-0.9c7.9,0.1,15.9-0.1,23.8,0.1
	c3.7,0.1,7.3,1,10.4,3.4c4,3,5.3,7.2,5.1,12c-0.2,5.5-1.9,10.6-5.5,14.9c-3.9,4.6-8.8,7.3-14.9,8C148,110.1,145,110.1,142.1,110.1z"
	/>
<path d="M103.5,79.9c-1.7,0-3.5,0-5.2,0c-0.5,0-0.6,0.1-0.7,0.6c-1.9,9.7-3.7,19.3-5.6,29c-0.1,0.5-0.2,0.7-0.8,0.7
	c-3.3,0-6.7,0-10,0c-0.7,0-0.7-0.2-0.6-0.8c1.5-7.5,2.9-15,4.4-22.5c1.9-9.5,3.7-19,5.5-28.6c0.1-0.7,0.4-0.9,1.1-0.9
	c3.3,0,6.5,0,9.8,0c0.5,0,0.7,0.1,0.6,0.7c-0.8,4.2-1.6,8.5-2.5,12.7c-0.1,0.7,0.1,0.7,0.6,0.7c4.1,0,8.2-0.1,12.4,0.1
	c2.6,0.1,5.2,0.5,7.7,1.6c3.2,1.4,4.9,3.9,5.2,7.4c0.2,2.7-0.4,5.2-0.9,7.8c-1.4,7.1-2.8,14.1-4.1,21.1c-0.1,0.6-0.3,0.7-0.9,0.7
	c-3.4,0-6.7,0-10.1,0c-0.6,0-0.7-0.2-0.6-0.7c1.3-6.7,2.6-13.4,3.9-20.1c0.2-1.2,0.5-2.4,0.7-3.5c0.6-3.7-0.8-5.4-4.5-5.7
	C107,79.9,105.2,79.9,103.5,79.9z"/>
<path class="st44" d="M52.9,101.8c-2,0-3.5,0-4.9,0c-0.5,0-0.6-0.1-0.5-0.6c1.4-7,2.7-13.9,4.1-20.9c0.1-0.4,0.1-0.7,0.7-0.6
	c3.3,0.1,6.6-0.1,10,0.2c1.3,0.1,2.6,0.4,3.8,0.8c2.3,0.9,3.4,2.6,3.6,4.9c0.2,3.5-0.5,7-2.1,10.2c-1.7,3.4-4.7,5-8.4,5.6
	C56.9,101.8,54.6,101.8,52.9,101.8z"/>
<path class="st44" d="M142.5,101.8c-1.9,0-3.3,0-4.7,0c-0.6,0-0.8-0.1-0.7-0.8c1-4.8,1.9-9.5,2.8-14.3c0.4-2.1,0.8-4.2,1.2-6.3
	c0.1-0.4,0.1-0.7,0.7-0.7c3.3,0.1,6.6-0.1,9.9,0.2c1.5,0.1,3,0.4,4.3,1c2.1,1,3.1,2.7,3.2,4.9c0.2,3.8-0.6,7.5-2.6,10.8
	c-1.8,2.9-4.6,4.2-7.8,4.8C146.6,101.8,144.3,101.8,142.5,101.8z"/>
<path class="st46" d="M53.5,99.7c-1.2,0-2.1,0-2.9,0c-0.5,0-0.6-0.1-0.5-0.6c1-4.9,1.9-9.8,2.9-14.7c0.1-0.7,0.3-1.3,0.4-2
	c0-0.3,0.1-0.5,0.4-0.4c3.5,0.1,7.1-0.4,10.5,0.5c1.8,0.4,3,1.5,3.1,3.4c0.1,3.7-0.6,7.2-2.8,10.3c-1.5,2.1-3.8,2.7-6.1,3.1
	C56.8,99.6,55.2,99.7,53.5,99.7z"/>
<path class="st46" d="M147.5,82c1.9,0,3.9-0.1,5.8,0.3c2.9,0.6,3.9,1.6,3.8,4.5c0,2.8-0.7,5.5-1.9,8c-1.3,2.5-3.4,3.8-6,4.4
	c-3,0.7-6.1,0.5-9.1,0.5c-0.6,0-0.4-0.4-0.3-0.7c0.6-3,1.2-6,1.8-9c0.5-2.4,0.9-4.8,1.4-7.2c0.1-0.6,0.3-0.8,0.9-0.8
	C145,82,146.3,82,147.5,82z"/>
</svg>
