<?xml version="1.0" encoding="utf-8"?>
<!-- Generator: Adobe Illustrator 23.1.0, SVG Export Plug-In . SVG Version: 6.00 Build 0)  -->
<svg version="1.1" id="Layer_1" xmlns="http://www.w3.org/2000/svg" xmlns:xlink="http://www.w3.org/1999/xlink" x="0px" y="0px"
	 viewBox="0 0 200 200" style="enable-background:new 0 0 200 200;" xml:space="preserve">
<style type="text/css">
	.st0{fill:#040404;}
	.st1{fill:#336791;}
	.st2{fill:#FEFEFE;}
	.st3{fill:none;}
</style>
<path class="st0" d="M115.1,200c-0.1-0.5-0.6-0.4-0.9-0.4c-8.5-1.5-13.6-6.9-16.8-14.7c-3.5-8.6-4.2-17.7-4.5-26.9
	c-0.1-2.9,0-5.9,0-9.1c-3.3,1.3-6.2,2.2-9.3,2.5c-7.5,0.6-14.8,0-21.5-4c-1.3-0.8-2.3-2.7-3.6-2.6c-1.2,0.1-2.4,1.6-3.8,2.3
	c-6.5,3.3-14,2.2-19.8-2.8c-4.6-4-7.9-9.1-10.7-14.4C17.6,117,13.5,103.3,9.9,89.5c-2.7-10.5-5-21-6.3-31.8c-0.1-0.9,0.2-2-0.5-2.9
	v-8.3c0.7-0.3,0.4-0.9,0.4-1.4c0.4-3.9,0.8-7.7,1.8-11.5C8.4,21.7,15,12.3,26.6,7c7.4-3.4,15.2-4.4,23.2-4.2c9.6,0.2,19,2.1,28.1,5
	c0.9,0.3,1.7,0.7,2.7,0.1c9.1-5.1,18.9-6.4,29.1-5.5c5.5,0.5,11,1.4,16.4-0.6c0.6-0.2,1.3-0.2,1.9-0.4c2.6-0.7,5.3-0.5,7.8-1.4h13.3
	c1.2,0.7,2.6,0.5,3.9,0.7c15.1,2.2,27.7,8.9,37.5,20.7c2.7,3.3,4.2,7,4.9,11.2c1.4,8.6,0.4,17.1-1.3,25.5
	c-3.9,19.7-11.5,37.9-21.4,55.3c-0.3,0.4-0.7,0.8-0.6,1.5c3.1-0.2,6.2-0.6,9.2-1.2c6.6-1.3,12.5-0.7,15.5,6.7v5.4
	c-1.9,4.2-5.1,7.4-8.8,10.1c-8.6,6.1-18.4,8-28.7,7.9c-2.5,0-2.5,0-2.8,2.5c-0.1,1-0.2,2-0.2,3c-0.4,8.6-1.2,17.2-3.6,25.5
	c-3.6,12.4-11.2,20.7-24.1,23.7l-7.5,1.7L115.1,200z M97,139.1c0,0.8,0,1.3,0,1.8c0,9.4,0.1,18.8,0.9,28.2
	c0.5,5.8,1.4,11.5,4.7,16.5c3.1,4.8,7.3,7.9,13.1,8.8c6.4,0.9,12.3-0.6,18.2-2.9c6.6-2.7,10.8-7.5,12.9-14.2c1.5-4.9,2.1-9.9,2.8-15
	c1.1-8,2-16,3-24c0.1-0.7,0-1.4,1.2-1.1c6.3,1.4,12.6,0.7,18.8-0.7c6.6-1.5,12.3-4.6,16.9-9.6c1.5-1.7,2.6-3.7,1.5-6
	c-1.2-2.3-3.4-2.5-5.6-2.3c-2.9,0.4-5.8,1-8.7,1.3c-4.1,0.5-8.2,0.8-12.3-0.5c-1.3-0.4-1.7-0.8-0.8-2.2
	c9.4-14.6,16.7-30.5,21.7-47.1c3-9.9,5.2-20,5.1-30.5c0-5-0.6-10.1-3.9-14.3c-5.9-7.5-13.3-13-22.3-16.2
	c-14.7-5.3-29.5-4.5-44.2-0.2c-0.8,0.2-1.5,0.5-2.4,0.3c-2.7-0.6-5.5-1.1-8.3-1.3c-9.2-0.8-18.1,0.1-26.2,4.9
	c-2,1.2-3.5,1.2-5.6,0.5c-12.5-4-25.1-6.5-38.3-4.5c-13.4,2.1-22.9,9.3-27.5,22.2c-3,8.4-3.6,17.2-2.7,26
	c1.1,10.7,3.6,21.2,6.3,31.6c3.4,13.1,7.4,26.1,13.6,38.2c2.4,4.7,5.2,9.2,9.2,12.7c5.5,4.9,11.9,4.9,17.4,0
	c1.4-1.3,2.7-2.7,3.9-4.2c4.3-5,8.6-9.9,13.1-14.8c0.7-0.7,1.2-0.9,2.1-0.4c2.6,1.3,5.4,2.1,8.2,2.3c0.5,0,1.1-0.1,1.5,0.4
	c-2.4,4.4-5.9,7-10.9,7.8c-3.1,0.5-6.1,1.1-8.9,2.7c-3.4,2-3.8,5.4-1.1,8c1.9,1.9,4.4,2.9,6.9,3.5C79.9,146.9,88.9,146,97,139.1z"/>
<g>
	<path class="st1" d="M155,116.5c-2.1-2.6-4.2-5.2-5.6-8.3c-2.1-4.5-4.7-8.7-6.9-13.2c-1.6-3.1-3.2-6.3-4.6-9.5
		c-2.6-6.1-4.8-12.4-4.5-19.2c0.2-6.7,4.1-11.7,10.6-13.5c1.5-0.4,3-0.6,4.6-0.8c2.7-0.4,5.5-0.1,8.2,0.1c0.2-0.8-0.1-1.4-0.4-1.9
		c-10-22.4-26.2-36.1-51.5-37.1c-10-0.4-19,2.5-26.2,9.9c-3.8,4-6.6,8.8-8.6,13.9c-2.6,6.6-4.1,13.6-4.6,20.7c0.7,0.1,1-0.2,1.4-0.4
		c4.2-2.2,8.7-3.7,13.4-4.2C88.7,52,96,55.5,98,65c0.4,2,0.8,4.1,1.2,6.2c2,12.1,1.3,23.8-4.3,35c-1.7,3.4-2.8,7-4,10.5
		c-0.2,0.8-0.5,1.3,0.8,1.3c6.3-0.1,11.4,5.5,11.1,12c-0.6,13.7-0.3,27.4,0.8,41.1c0.4,4.7,1.7,9.1,4.6,13c1.7,2.3,4.2,4,7,4.7
		c3.7,0.9,7.4,0.3,11-0.5c7.8-1.8,13.7-5.7,15.6-14c0.3-1.5,0.7-2.9,0.9-4.4c2.1-14,4.1-27.9,5-42c0.3-4.6,2.5-7.9,6.9-9.6
		C155.9,117.7,155.7,117.3,155,116.5z"/>
	<path class="st1" d="M67.4,114.9c-6.6-6.5-9.3-14.5-8.5-23.6c0.5-5.6,1.2-11.2,0.9-16.8c-0.3-8.5-0.6-17,1-25.4
		c1.9-10.3,5.3-19.8,12-28c0.7-0.9,1.5-1.8,2.5-2.8c-11.5-3.7-22.8-5.8-34.6-4.2c-12,1.6-20.4,7.9-24.2,19.7
		c-1.9,6.1-2.4,12.3-2.3,18.6c0.1,6.4,1.4,12.7,2.7,19c3.1,14.8,6.9,29.4,12.6,43.5c2.6,6.6,5.6,13.1,10.3,18.5
		c4.8,5.5,8.8,5.5,13.5,0c4.6-5.4,9.1-10.8,14-15.9C68.6,116.4,68.4,115.9,67.4,114.9z"/>
	<path class="st1" d="M184.3,33.9c-0.8-4.8-4.1-7.9-7.4-10.9c-14.1-12.4-30.6-13.7-48.2-10.4c0.2,0.1,0.4,0.3,0.6,0.4
		c13.7,6.6,23.3,17.2,30.3,30.5c3.6,6.9,4.5,13.9,3.1,21.3c-1.4,7.2-1.3,14.5-0.3,21.8c1.2,8.5,1.2,16.8-3.3,24.6
		c-0.4,0.6-0.4,1.2,0.2,1.5c0.8,0.4,0.9-0.5,1.1-0.9c11.9-19.5,20.5-40.2,23.9-62.9C185,44,185.1,38.9,184.3,33.9z"/>
	<path class="st1" d="M66.2,103.5c3.2,7.1,8.4,11.6,16.2,13c2.5,0.4,2.5,0.4,3.2-1.9c1.1-3.8,2.5-7.5,4.2-11
		c3.4-7.1,5.2-14.5,4.7-22.4c-0.3-5.5-0.9-11-2.4-16.3c-1.1-4.2-3.9-6.3-8.2-6.4c-6.2-0.2-11.7,2-17,5c-1.4,0.8-2,1.7-1.8,3.4
		c0.7,8.1,0.5,16.3-0.6,24.3C63.9,95.4,64.5,99.7,66.2,103.5z M80.8,62.1c2.9-1.1,5.7-0.6,8.2,1c1.3,0.8,1.3,2,0.3,3.2
		c-1,1.2-2.4,1.9-3.9,2c-2.5,0-4.9-1.8-5.6-3.8C79.3,63.3,79.6,62.5,80.8,62.1z"/>
	<path class="st1" d="M157.7,59c0-0.6,0.2-1.2-0.8-1.3c-4.1-0.5-8.2-0.6-12.2,0.8c-3.3,1.2-5.2,3.5-5.6,7c-0.5,4.1,0.5,8,1.7,11.8
		c3.3,10.4,9.3,19.5,14.1,29.4c0.1-0.2,0.3-0.4,0.4-0.6c0.3-0.6,0.5-1.2,0.7-1.8c1.8-5.3,1.6-10.7,0.9-16.2
		c-0.8-6.3-1.5-12.6-0.5-18.9C156.9,65.8,157.5,62.4,157.7,59z M150.3,64.9c-2.1,1.5-4.9,1.2-6.6-0.7c-0.9-1.1-0.9-2,0.4-2.8
		c1.4-0.9,3.1-1.2,4.9-1.3c1.2,0.3,2.9-0.1,3.4,1.5C152.7,63.1,151.5,64.1,150.3,64.9z"/>
	<path class="st1" d="M94,123.9c-1.4-0.7-2.7-0.6-3.7,0.6c-0.9,1-1.9,2-2.7,3.1c-3.1,4.8-7.7,7.1-13.2,8.2c-2.1,0.4-4.3,0.7-6.4,1.8
		c1.6,1.2,3.4,1.6,5.1,1.9c9,1.7,16.9,0.1,22.8-7.5C97.9,129.4,96.9,125.4,94,123.9z"/>
	<path class="st1" d="M175.6,125.5c-5.5,0.4-11,0.7-16-2.4c-0.7-0.4-1.2-0.2-1.9,0c-3.2,0.9-4.2,2.2-4.5,5.4
		c-0.3,2.6-0.1,2.9,2.4,3.3c6.6,1,13.3,0.3,19.6-2.1c3.1-1.2,5.9-2.8,8.3-5c-0.4-0.1-0.8-0.1-1.2-0.1
		C180.1,124.9,177.9,125.3,175.6,125.5z"/>
</g>
<g>
	<path class="st2" d="M190.9,120.7c-1.1-2.3-3.4-2.5-5.6-2.3c-2.9,0.3-5.8,1-8.7,1.3c-4.1,0.5-8.2,0.8-12.3-0.5
		c-1.3-0.4-1.7-0.8-0.8-2.2c9.4-14.6,16.7-30.5,21.7-47.1c3-9.9,5.2-20,5.1-30.5c0-5-0.6-10.1-3.9-14.3c-5.9-7.5-13.3-13-22.3-16.2
		c-14.7-5.3-29.5-4.5-44.2-0.2c-0.8,0.2-1.5,0.5-2.4,0.3c-2.7-0.6-5.5-1.1-8.3-1.3c-9.2-0.8-18.1,0.1-26.2,4.9
		c-2,1.2-3.5,1.2-5.6,0.5c-12.5-4-25.1-6.5-38.3-4.5c-13.4,2.1-22.8,9.2-27.5,22.2c-3,8.4-3.6,17.2-2.7,26
		c1.1,10.7,3.6,21.2,6.3,31.6c3.4,13.1,7.4,26.1,13.6,38.2c2.4,4.7,5.2,9.2,9.2,12.7c5.5,4.9,11.9,4.9,17.4,0
		c1.4-1.3,2.7-2.7,3.9-4.2c4.3-5,8.6-9.9,13.1-14.8c0.7-0.7,1.2-0.9,2.1-0.4c2.6,1.3,5.4,2.1,8.2,2.3c0.5,0,1.1-0.1,1.5,0.4
		c-2.4,4.4-5.9,7-10.9,7.8c-3.1,0.5-6.1,1.1-8.9,2.7c-3.4,2-3.8,5.4-1.1,8c1.9,1.9,4.4,2.9,6.9,3.5c9.6,2.3,18.5,1.3,26.6-5.5
		c0,0.8,0,1.3,0,1.7c0,9.4,0.1,18.8,0.9,28.2c0.5,5.8,1.4,11.5,4.7,16.5c3.1,4.8,7.3,7.9,13.1,8.8c6.4,0.9,12.3-0.6,18.2-2.9
		c6.6-2.7,10.8-7.5,12.9-14.2c1.5-4.9,2.1-9.9,2.8-15c1.1-8,2-16,3-24c0.1-0.7,0-1.4,1.2-1.1c6.3,1.4,12.6,0.7,18.8-0.7
		c6.6-1.5,12.3-4.6,16.9-9.6C190.9,125,192,123,190.9,120.7z M176.9,23.1c3.4,3,6.7,6.1,7.4,10.9c0.7,5,0.7,10-0.1,15
		c-3.4,22.7-12,43.4-23.9,62.9c-0.2,0.4-0.3,1.3-1.1,0.9c-0.6-0.3-0.6-0.9-0.2-1.5c4.5-7.7,4.5-16.1,3.3-24.6
		c-1-7.3-1.1-14.5,0.3-21.8c1.4-7.5,0.5-14.5-3.1-21.3c-7-13.3-16.6-23.9-30.3-30.5c-0.2-0.1-0.4-0.2-0.6-0.4
		C146.3,9.3,162.8,10.6,176.9,23.1z M156.9,88.1c0.7,5.4,0.9,10.9-0.9,16.2c-0.2,0.6-0.5,1.2-0.7,1.8c-0.1,0.2-0.3,0.4-0.4,0.6
		c-4.8-9.9-10.9-19-14.1-29.4c-1.2-3.8-2.2-7.7-1.7-11.8c0.4-3.5,2.3-5.8,5.6-7c4-1.4,8.1-1.2,12.2-0.8c0.9,0.1,0.8,0.6,0.8,1.3
		c-0.2,3.4-0.8,6.8-1.3,10.1C155.4,75.5,156.2,81.8,156.9,88.1z M67.5,117.5c-4.8,5.1-9.4,10.5-14,15.9c-4.7,5.5-8.7,5.5-13.5,0
		c-4.7-5.4-7.7-11.9-10.3-18.5c-5.6-14.1-9.5-28.7-12.6-43.5c-1.3-6.3-2.6-12.5-2.7-19c-0.1-6.3,0.3-12.5,2.3-18.6
		C20.4,21.9,28.8,15.7,40.8,14c11.7-1.6,23.1,0.5,34.6,4.2c-0.9,1.1-1.7,1.9-2.5,2.8c-6.7,8.2-10.1,17.8-12,28
		c-1.6,8.4-1.3,16.9-1,25.4c0.2,5.6-0.4,11.2-0.9,16.8c-0.8,9.1,1.9,17.1,8.5,23.6C68.4,115.9,68.6,116.4,67.5,117.5z M82.4,116.6
		c-7.7-1.4-13-6-16.2-13c-1.7-3.9-2.3-8.1-1.7-12.3c1.1-8.1,1.3-16.2,0.6-24.3c-0.1-1.7,0.4-2.6,1.8-3.4c5.3-3,10.7-5.2,17-5
		c4.3,0.2,7.1,2.2,8.2,6.4c1.5,5.3,2.1,10.8,2.4,16.3c0.5,7.9-1.3,15.3-4.7,22.4c-1.7,3.6-3.1,7.3-4.2,11
		C84.9,116.9,84.8,117,82.4,116.6z M95.9,132c-5.9,7.6-13.8,9.3-22.8,7.5c-1.8-0.3-3.5-0.7-5.1-1.9c2.1-1.1,4.3-1.4,6.4-1.8
		c5.5-1,10-3.4,13.2-8.2c0.7-1.1,1.8-2.1,2.7-3.1c1.1-1.2,2.3-1.3,3.7-0.6C96.9,125.4,97.9,129.4,95.9,132z M147.7,127.8
		c-1,14.1-2.9,28.1-5,42c-0.2,1.5-0.6,2.9-0.9,4.4c-1.9,8.3-7.8,12.2-15.6,13.9c-3.6,0.8-7.3,1.4-11,0.5c-2.8-0.7-5.3-2.4-7-4.7
		c-2.9-3.8-4.3-8.2-4.6-13c-1.1-13.7-1.4-27.4-0.8-41.1c0.3-6.5-4.8-12-11.1-12c-1.3,0-1.1-0.5-0.8-1.3c1.1-3.6,2.3-7.2,4-10.5
		c5.6-11.2,6.3-22.9,4.3-35C98.8,69,98.4,67,98,64.9c-2-9.5-9.2-13-17.7-12c-4.7,0.5-9.2,2.1-13.4,4.2c-0.4,0.2-0.8,0.6-1.4,0.4
		c0.5-7.1,2-14.1,4.6-20.7c2-5.2,4.8-9.9,8.6-13.9c7.1-7.4,16.1-10.3,26.2-9.9c25.3,1,41.5,14.8,51.5,37.1c0.2,0.5,0.6,1.1,0.4,1.9
		c-2.7-0.2-5.4-0.5-8.1-0.1c-1.5,0.2-3.1,0.5-4.6,0.8c-6.5,1.8-10.4,6.7-10.6,13.5c-0.2,6.8,1.9,13.1,4.5,19.2
		c1.4,3.2,3,6.4,4.6,9.5c2.2,4.4,4.9,8.6,6.9,13.2c1.4,3.1,3.5,5.7,5.6,8.3c0.7,0.8,0.9,1.2-0.4,1.7
		C150.2,119.8,148,123.2,147.7,127.8z M183.5,124.7c-2.4,2.2-5.3,3.8-8.3,5c-6.2,2.4-13,3.1-19.6,2.1c-2.6-0.4-2.7-0.7-2.4-3.3
		c0.3-3.2,1.4-4.5,4.5-5.4c0.6-0.2,1.2-0.4,1.9,0c5,3.1,10.5,2.9,16,2.4c2.3-0.2,4.5-0.6,6.7-0.9
		C182.7,124.6,183.1,124.6,183.5,124.7L183.5,124.7z"/>
	<path class="st2" d="M89.2,66.3c1-1.2,1-2.4-0.3-3.2c-2.5-1.7-5.3-2.1-8.2-1c-1.2,0.4-1.5,1.2-1,2.4c0.7,2,3.1,3.7,5.6,3.8
		C86.8,68.1,88.2,67.4,89.2,66.3z"/>
	<path class="st2" d="M149,60.1c-1.8,0.2-3.4,0.4-4.9,1.3c-1.2,0.8-1.3,1.7-0.4,2.8c1.7,1.9,4.6,2.2,6.6,0.7c1.1-0.8,2.4-1.8,2-3.3
		C151.9,60,150.1,60.3,149,60.1z"/>
	<path class="st3" d="M149,60.1c-1.8,0.2-3.4,0.4-4.9,1.3c-1.2,0.8-1.3,1.7-0.4,2.8c1.7,1.9,4.6,2.2,6.6,0.7c1.1-0.8,2.4-1.8,2-3.3
		C151.9,60,150.1,60.3,149,60.1z"/>
	<path class="st3" d="M85.3,68.2c1.5-0.1,2.9-0.8,3.9-2c1-1.2,1-2.4-0.3-3.2c-2.5-1.7-5.3-2.1-8.2-1c-1.2,0.4-1.5,1.2-1,2.4
		C80.4,66.4,82.8,68.2,85.3,68.2z"/>
</g>
</svg>
