<?xml version="1.0" encoding="utf-8"?>
<!-- Generator: Adobe Illustrator 23.1.0, SVG Export Plug-In . SVG Version: 6.00 Build 0)  -->
<svg version="1.1" id="Layer_1" xmlns="http://www.w3.org/2000/svg" xmlns:xlink="http://www.w3.org/1999/xlink" x="0px" y="0px"
	 viewBox="0 0 200 200" style="enable-background:new 0 0 200 200;" xml:space="preserve">
<style type="text/css">
	.st0{fill:#53C1DE;}
</style>
<path class="st0" d="M164.4,68.6c-2.1-0.7-4.2-1.4-6.4-2c0.4-1.5,0.7-3,1-4.4c4.9-23.7,1.7-42.7-9.2-49c-10.4-6-27.5,0.3-44.7,15.3
	c-1.7,1.4-3.3,3-5,4.6C99,32,97.9,30.9,96.8,30c-18.1-16-36.2-22.8-47-16.5c-10.4,6-13.5,24-9.1,46.4c0.4,2.2,0.9,4.4,1.5,6.6
	c-2.6,0.7-5,1.5-7.4,2.3C13.5,76.2,0,87.7,0,99.7c0,12.4,14.5,24.8,36.6,32.4c1.7,0.6,3.5,1.2,5.4,1.7c-0.6,2.4-1.1,4.8-1.6,7.1
	c-4.2,22-0.9,39.5,9.5,45.5c10.7,6.2,28.8-0.2,46.3-15.5c1.4-1.2,2.8-2.5,4.2-3.8c1.8,1.7,3.6,3.4,5.4,4.9
	c17,14.6,33.8,20.5,44.2,14.5c10.7-6.2,14.2-25,9.7-47.9c-0.3-1.7-0.7-3.5-1.2-5.3c1.3-0.4,2.5-0.8,3.7-1.2
	c22.9-7.6,37.8-19.9,37.8-32.4C200,87.7,186,76.1,164.4,68.6z M110.7,34.9c14.8-12.8,28.6-17.9,34.9-14.3c6.7,3.9,9.3,19.4,5.1,39.9
	c-0.3,1.3-0.6,2.6-0.9,4c-8.3-1.9-17.3-3.3-26.7-4.2c-5.5-7.8-11.2-14.9-16.9-21.1C107.6,37.6,109.2,36.2,110.7,34.9z M63.6,99.9
	c2.6-5.4,5.4-10.8,8.5-16.1l0,0c3.1-5.4,6.3-10.5,9.7-15.4c5.9-0.4,12-0.7,18.2-0.7h0c6.2,0,12.3,0.2,18.2,0.7
	c3.3,4.9,6.5,10,9.6,15.4c3.1,5.4,6,10.8,8.6,16c-2.6,5.4-5.5,10.8-8.6,16.2c-3.1,5.4-6.3,10.6-9.6,15.5c-5.9,0.4-12.1,0.6-18.3,0.6
	c-6.2,0-12.3-0.2-18.1-0.6c-3.4-4.9-6.7-10.1-9.8-15.5h0C69,110.7,66.2,105.3,63.6,99.9z M59.1,110c1.8,3.5,3.7,6.9,5.7,10.3h0
	c2,3.5,4.1,6.9,6.3,10.3c-6.6-0.7-12.7-1.7-18.4-3C54.3,121.9,56.5,116,59.1,110z M59,89.9c-2.5-5.9-4.6-11.7-6.4-17.3
	c5.7-1.3,11.8-2.3,18.1-3.1c-2.1,3.3-4.1,6.6-6.1,10.1v0C62.7,83,60.8,86.4,59,89.9z M135.3,120.3c2-3.5,4-7.1,5.8-10.6
	c2.7,6.1,4.9,12,6.7,17.6c-5.8,1.3-12.1,2.4-18.7,3.2C131.2,127.2,133.3,123.8,135.3,120.3z M141,89.9c-1.8-3.4-3.7-6.9-5.8-10.4
	c-2-3.4-4-6.8-6.1-10c6.4,0.8,12.5,1.9,18.2,3.2C145.7,78.2,143.6,84,141,89.9z M100.1,45.2c3.9,4.3,7.9,9,11.8,14.2
	c-3.9-0.2-7.9-0.3-11.9-0.3c-4,0-7.9,0.1-11.8,0.3C92.1,54.3,96.1,49.6,100.1,45.2z M54,20.9c6.7-3.9,21.5,1.6,37.1,15.5
	c1,0.9,2,1.8,3,2.8c-5.8,6.2-11.6,13.3-17,21.1c-9.4,0.9-18.4,2.3-26.7,4.1c-0.5-2.1-1-4.2-1.4-6.2C45.2,39,47.7,24.5,54,20.9z
	 M44.3,125.6c-1.7-0.5-3.4-1-4.9-1.5c-9.8-3.3-17.8-7.7-23.3-12.4c-5-4.2-7.5-8.5-7.5-11.9c0-7.3,10.9-16.6,29-22.9
	c2.2-0.8,4.5-1.5,6.9-2.2c2.5,8.1,5.8,16.7,9.7,25.3C50.1,108.7,46.8,117.3,44.3,125.6z M90.6,164.5c-7.8,6.8-15.5,11.6-22.4,14
	c-6.2,2.2-11.1,2.2-14,0.5c-6.3-3.6-8.9-17.7-5.4-36.5c0.4-2.2,0.9-4.4,1.5-6.6c8.2,1.8,17.3,3.1,27,3.9
	c5.5,7.8,11.3,14.9,17.2,21.2C93.1,162.2,91.8,163.4,90.6,164.5z M100.3,154.9c-4-4.4-8.1-9.2-12-14.4c3.8,0.2,7.7,0.2,11.7,0.2
	c4.1,0,8.1-0.1,12.1-0.3C108.2,145.7,104.2,150.5,100.3,154.9z M152.2,166.7c-1.2,6.4-3.6,10.7-6.5,12.4
	c-6.3,3.6-19.8-1.1-34.3-13.6c-1.7-1.4-3.3-3-5-4.6c5.6-6.2,11.3-13.3,16.8-21.3c9.7-0.9,18.8-2.3,27.1-4.2c0.4,1.6,0.8,3.3,1.1,4.8
	C153.3,150.5,153.5,159.6,152.2,166.7z M159.5,124.1c-1.1,0.4-2.2,0.7-3.4,1.1c-2.5-8-5.9-16.5-10.1-25.3c4-8.6,7.3-17,9.7-25
	c2,0.6,4,1.2,5.9,1.9c18.5,6.4,29.8,15.8,29.8,23C191.5,107.5,179.3,117.5,159.5,124.1z"/>
<circle class="st0" cx="100" cy="99.7" r="17.9"/>
</svg>
