<?xml version="1.0" encoding="utf-8"?>
<!-- Generator: Adobe Illustrator 23.1.0, SVG Export Plug-In . SVG Version: 6.00 Build 0)  -->
<svg version="1.1" id="Layer_1" xmlns="http://www.w3.org/2000/svg" xmlns:xlink="http://www.w3.org/1999/xlink" x="0px" y="0px"
	 viewBox="0 0 14400 14400" style="enable-background:new 0 0 14400 14400;" xml:space="preserve">
<style type="text/css">
	.st0{fill:#8AB0D8;}
	.st1{fill:#2D3173;}
</style>
<title>teamdynamix</title>
<path class="st0" d="M6990.2,3522c1605-86.6,3215-182,4806.1,87.8c1318.9,224.6,2143.3,1057.9,2453.3,2366.7
	c194,814,200.4,1661.5,18.8,2478.4c-325,1487-1525.9,2416.9-3272.7,2487.1c-1168.3,46.4-2339.1,15.1-3513.6,18.8
	c-234.7,0-466.8,20.1-466.8-335c0-284.9,95.4-422.9,390.3-432.9c619.9-18.8,791.8-376.5,780.5-956.2c-27.6-1295-7.5-2590-8.8-3890.1
	c0-1012.7-125.5-1119.3-1129.4-1030.2L6990.2,3522z M9685.6,7205c0,813.2,0,1631.3,0,2438.2c0,200.8-36.4,404.1,269.8,470.6
	c1093,240.9,2115.7-257.2,2561.2-1297.5c315.1-778,395.8-1631.2,232.2-2454.5c-266-1546-1036.5-2123.2-2601.3-2068
	c-351.4,12.5-475.6,125.5-468.1,473.1C9696.9,5580,9685.6,6391.9,9685.6,7205z"/>
<path class="st1" d="M6990.2,3522l64,799.3c-16.3,312.7-16.3,626,0,938.6c38.9,427.9-42.7,642.5-557.2,627.4
	c-421.6-15.1-534.6-136.8-512-537.1c26.4-450.5,89.1-941.1-578.5-1054.1c-1054.1-176.9-1129.4-125.5-1129.4,933.6
	c0,1316.4-6.3,2635.2,0,3947.8c7.5,838.3,74,922.3,908.5,1012.7c321.2,36.4,352.6,179.4,358.9,441.7c0,311.2-165.6,335-399,318.7
	c-1082.8-78.4-2169.8-78.4-3252.6,0c-230.9,17.6-407.8,0-400.3-316.2c0-261,31.4-406.6,355.1-444.2
	c837-94.1,909.8-185.7,914.8-1003.9c8.8-1483.3-11.3-2966.5,11.3-4448.5c6.3-400.3-133-491.9-501.9-488.1
	c-1062.9,12.5-1231,125.5-1205.9,1163.3c10,431.7-160.6,469.3-501.9,465.6S-13.2,5856,0.6,5377.9c27.6-588.5,0-1882.3,0-1882.3
	h1854.7C3566.9,3488.1,5278.5,3512,6990.2,3522z"/>
</svg>
