<svg id="Layer_1" data-name="Layer 1" xmlns="http://www.w3.org/2000/svg" viewBox="0 0 114.75 59.4"><defs><style>.cls-1{fill:#fefefe;}.cls-2{fill:#8ab0d8;}.cls-3{fill:#2d3173;}</style></defs><title>teamdynamix</title><path class="cls-1" d="M-41.94,30.55c0-32.16,0-64.33-.08-96.5,0-3,.6-3.59,3.58-3.58q96.5.16,193,0c3,0,3.59.6,3.58,3.58q-.15,96.51,0,193c0,3-.6,3.59-3.58,3.59q-96.49-.16-193,0c-3,0-3.6-.59-3.58-3.58C-41.89,94.89-41.94,62.72-41.94,30.55ZM55.7.21C42.06.13,28.42-.06,14.78,0,10,0,3.5-2.17.94,1-1.45,4,.48,10.25,0,15c-.35,3.77,1.56,3.89,4.4,3.91s4.13-.27,4.05-3.71C8.29,7,9.63,6.06,18.1,6c3,0,4.08.7,4,3.89C22,21.66,22.11,33.48,22,45.3c0,6.53-.62,7.26-7.29,8-2.58.3-2.79,1.46-2.83,3.54-.06,2.51,1.35,2.66,3.19,2.52a179.39,179.39,0,0,1,25.92,0c1.86.13,3.23-.06,3.18-2.54-.05-2.09-.3-3.23-2.86-3.52-6.65-.72-7.18-1.39-7.24-8.07-.1-10.48,0-21,0-31.46,0-8.46.6-8.85,9-7.44,5.32.9,4.82,4.81,4.61,8.4-.18,3.19.72,4.16,4.08,4.28,4.1.16,4.75-1.55,4.44-5a71.8,71.8,0,0,1,0-7.48c8-.71,9,.14,9,8.21,0,10.32-.15,20.64.07,31,.09,4.6-1.28,7.47-6.22,7.62-2.35.08-3.12,1.18-3.11,3.45,0,2.83,1.85,2.67,3.72,2.67,9.32,0,18.65.22,28-.15,13.92-.56,23.49-8,26.08-19.82a44,44,0,0,0-.15-19.75C111.08,9.34,104.51,2.7,94,.91,81.32-1.24,55.7.21,55.7.21Z"/><path class="cls-2" d="M55.7.21C68.49-.48,81.32-1.24,94,.91c10.51,1.79,17.08,8.43,19.55,18.86a44,44,0,0,1,.15,19.75c-2.59,11.85-12.16,19.26-26.08,19.82-9.31.37-18.64.12-28,.15-1.87,0-3.72.16-3.72-2.67,0-2.27.76-3.37,3.11-3.45,4.94-.15,6.31-3,6.22-7.62-.22-10.32-.06-20.64-.07-31,0-8.07-1-8.92-9-8.21ZM77.18,29.56c0,6.48,0,13,0,19.43,0,1.6-.29,3.22,2.15,3.75,8.71,1.92,16.86-2.05,20.41-10.34a34.29,34.29,0,0,0,1.85-19.56C99.47,10.52,93.33,5.92,80.86,6.36c-2.8.1-3.79,1-3.73,3.77C77.27,16.61,77.18,23.08,77.18,29.56Z"/><path class="cls-3" d="M55.7.21l.51,6.37a71.8,71.8,0,0,0,0,7.48c.31,3.41-.34,5.12-4.44,5-3.36-.12-4.26-1.09-4.08-4.28.21-3.59.71-7.5-4.61-8.4-8.4-1.41-9-1-9,7.44,0,10.49-.05,21,0,31.46.06,6.68.59,7.35,7.24,8.07,2.56.29,2.81,1.43,2.86,3.52,0,2.48-1.32,2.67-3.18,2.54a179.39,179.39,0,0,0-25.92,0c-1.84.14-3.25,0-3.19-2.52,0-2.08.25-3.24,2.83-3.54,6.67-.75,7.25-1.48,7.29-8,.07-11.82-.09-23.64.09-35.45.05-3.19-1.06-3.92-4-3.89-8.47.1-9.81,1-9.61,9.27.08,3.44-1.28,3.74-4,3.71S-.11,18.81,0,15C.22,10.31,0,0,0,0L14.78,0C28.42-.06,42.06.13,55.7.21Z"/><path class="cls-1" d="M77.18,29.56c0-6.48.09-12.95-.05-19.43-.06-2.8.93-3.67,3.73-3.77,12.47-.44,18.61,4.16,20.74,16.48A34.29,34.29,0,0,1,99.75,42.4c-3.55,8.29-11.7,12.26-20.41,10.34-2.44-.53-2.14-2.15-2.15-3.75C77.16,42.51,77.18,36,77.18,29.56Z"/></svg>