<?xml version="1.0" encoding="utf-8"?>
<!-- Generator: Adobe Illustrator 23.1.0, SVG Export Plug-In . SVG Version: 6.00 Build 0)  -->
<svg version="1.1" id="Layer_1" xmlns="http://www.w3.org/2000/svg" xmlns:xlink="http://www.w3.org/1999/xlink" x="0px" y="0px"
	 viewBox="0 0 200 200" style="enable-background:new 0 0 200 200;" xml:space="preserve">
<style type="text/css">
	.st0{fill:#952781;}
	.st1{fill:#6483C0;}
	.st2{fill:#D87B30;}
	.st3{fill:#E0D400;}
</style>
<g>
	<path d="M118.1,128.9V96l42.3,20.1v35.6L118.1,128.9"/>
	<path class="st0" d="M121.5,126.2V100l37.6,18.1v28.2L121.5,126.2"/>
	<path d="M118.1,96l40.3-17.5L199.3,98l-36.9,19.5L118.1,96"/>
	<path class="st0" d="M124.8,96.6l32.9-14.1l34.9,16.1l-31.5,16.1L124.8,96.6"/>
	<path d="M159.7,116.8l0.7,34.9l39.6-19.5L199.3,98L159.7,116.8"/>
	<path class="st0" d="M163.8,118.1v28.2l32.2-16.1v-28.9L163.8,118.1"/>
	<path d="M57.7,94.6V61.7L100,81.9v35.6L57.7,94.6"/>
	<path class="st1" d="M61.1,91.9V65.8l37.6,18.1v28.9L61.1,91.9"/>
	<path d="M57.7,61.7L98,45l40.9,18.8L102,83.2L57.7,61.7"/>
	<path class="st1" d="M64.4,62.4l32.9-14.1l34.9,16.1l-31.5,16.1L64.4,62.4"/>
	<path d="M99.3,82.6l0.7,34.9L139.6,98l-0.7-34.2L99.3,82.6"/>
	<path class="st1" d="M103.4,83.9v28.2L135.6,96V67.8L103.4,83.9"/>
	<path d="M0,126.8V94l41.6,20.1l0.7,35.6L0,126.8"/>
	<path class="st2" d="M3.4,124.2V98l37.6,18.1v28.2L3.4,124.2"/>
	<path d="M0,94l40.3-17.4L81.2,96l-37.6,19.5L0,94"/>
	<path class="st2" d="M6,94.6l33.6-14.1l34.9,16.1L43,112.8L6,94.6"/>
	<path d="M41.6,114.8l0.7,34.9l39.6-19.5L81.2,96L41.6,114.8"/>
	<path class="st2" d="M45,116.1l0.7,28.2l32.2-16.1l-0.7-28.9L45,116.1"/>
	<path d="M61.1,131.5V98.7l41.6,20.1l0.7,36.2L61.1,131.5"/>
	<path class="st3" d="M64.4,129.5v-26.8l37.6,18.1v28.9L64.4,129.5"/>
	<path d="M61.1,98.7l40.3-16.8l40.9,18.8l-37.6,19.5L61.1,98.7"/>
	<path class="st3" d="M67.1,100l33.6-14.1l34.9,16.1l-32.2,15.4L67.1,100"/>
	<path d="M102.7,119.5l0.7,35.6l38.9-20.1v-34.2L102.7,119.5"/>
	<path class="st3" d="M106,120.8l0.7,28.2l32.2-15.4l-0.7-28.9L106,120.8"/>
</g>
<path class="st3" d="M14.6,14.7"/>
</svg>
