<svg id="Layer_1" data-name="Layer 1" xmlns="http://www.w3.org/2000/svg" viewBox="0 0 792 798.74"><defs><style>.cls-1{fill:#68217a;}</style></defs><title>visual-studio</title><path class="cls-1" d="M266.42,450.11a8.57,8.57,0,0,0-3.25,2Q156.54,533.29,50,614.47c-2.07,1.57-3.59,1.9-6,.65Q23.85,604.77,3.52,594.85C.8,593.52,0,592,0,589.08Q.15,454.31.1,319.52c0-37.06.06-74.11-.06-111.17,0-3.11,1-4.67,3.71-6Q24.06,192.39,44.18,182c2.49-1.28,4.16-1.12,6.4.59q106.08,80.89,212.28,161.65c4,3.06,4,3.07,7.76-.58q116.47-113.42,233-226.82Q563.46,58.55,623.29.22c2.13-2.08,3.71-2.48,6.51-1.36Q709,30.75,788.18,62.42c4.36,1.75,3.73.92,3.73,5.76q0,162.95.05,325.91,0,166.76,0,333.52v2.28c0,3.31,0,3.33-3.22,4.6L641.59,793.26c-4,1.6-8.09,3-12,4.86-2.53,1.22-4,.55-5.84-1.26q-36.94-36-74-71.89L268.34,451.88C267.71,451.26,267,450.68,266.42,450.11ZM396,397.93c67.74,51,135.06,101.69,202.64,152.59.6-6,.34-300.6-.27-303.86C531,297,463.71,347.28,396,397.93ZM71.19,307.52c-.86,17.65-.37,178.46.57,181.78L172.55,398Z"/></svg>